<svg preserveAspectRatio="none" width="100%" height="100%" overflow="visible" style="display: block;" viewBox="0 0 344 55" fill="none" xmlns="http://www.w3.org/2000/svg">
<path id="Vector 82" d="M0 53V4.02439H7.43784V4.69512H27.8919V2.68293H44.627V6.70732H55.7838V4.02439H70.6595V1.34146H80.8865V2.68293H96.6919V1.34146H104.13V2.68293H112.497V1.34146H120.865V5.36585H146.897V2.0122H178.508H189.665V8.04878H202.681V5.36585H214.768V2.68293H224.995V0H241.73V2.68293H254.746V1.34146H258.465V0H270.551V2.68293H280.778V1.34146H290.076V5.36585H301.232V8.04878H316.108V1.34146H321.687V2.68293H325.405V1.34146H329.124V2.68293H332.843V4.02439H344V55H2C0.895431 55 0 54.1046 0 53Z" fill="var(--fill-0, #FF9B00)" fill-opacity="0.3"/>
</svg>
