<svg preserveAspectRatio="none" width="100%" height="100%" overflow="visible" style="display: block;" viewBox="0 0 345 56" fill="none" xmlns="http://www.w3.org/2000/svg">
<path id="Vector 83" d="M0.5 53.5V4.52439H7.93784V5.19512H28.3919V3.18293H45.127V7.20732H56.2838V4.52439H71.1595V1.84146H81.3865V3.18293H97.1919V1.84146H104.63V3.18293H112.997V1.84146H121.365V5.86585H147.397V2.5122H179.008H190.165V8.54878H203.181V5.86585H215.268V3.18293H225.495V0.5H242.23V3.18293H255.246V1.84146H258.965V0.5H271.051V3.18293H281.278V1.84146H290.576V5.86585H301.732V8.54878H316.608V1.84146H322.187V3.18293H325.905V1.84146H329.624V3.18293H333.343V4.52439H344.5V55.5H2.5C1.39543 55.5 0.5 54.6046 0.5 53.5Z" stroke="var(--stroke-0, #FF9B00)"/>
</svg>
