<svg width="16" height="16" viewBox="0 0 16 16" fill="none" xmlns="http://www.w3.org/2000/svg">
<rect x="1" y="1" width="14" height="14" rx="7" fill="#969696"/>
<path d="M12.9497 3.05025C11.637 1.7375 9.85652 1 8 1C6.14348 1 4.36301 1.7375 3.05025 3.05025C1.7375 4.36301 1 6.14348 1 8C0.999999 9.85651 1.7375 11.637 3.05025 12.9497L8 8L12.9497 3.05025Z" fill="#D9D9D9"/>
<path fill-rule="evenodd" clip-rule="evenodd" d="M11.2129 5.31859C11.3789 4.97879 11.0212 4.62113 10.6814 4.78713L7.26727 6.45502C7.08247 6.5453 6.92297 6.66287 6.7901 6.79982C6.6573 6.93078 6.54316 7.08707 6.45503 7.26748L4.78713 10.6816C4.62113 11.0214 4.9788 11.3791 5.31859 11.2131L8.73273 9.54518C8.91753 9.4549 9.07703 9.33734 9.2099 9.20038C9.3427 9.06943 9.45684 8.91314 9.54497 8.73273L11.2129 5.31859Z" fill="white"/>
<circle cx="8" cy="8.00007" r="0.535211" transform="rotate(45 8 8.00007)" fill="#6B6F76"/>
</svg>
