<svg width="16" height="16" viewBox="0 0 16 16" fill="none" xmlns="http://www.w3.org/2000/svg">
<rect x="4.27002" y="2.97559" width="9.67773" height="12.0103" rx="1" fill="#969696"/>
<path d="M2.03331 3.11377C2.03332 2.17097 2.03333 1.69957 2.32622 1.40668C2.61911 1.11379 3.09051 1.11379 4.03331 1.11379H10.0333C10.9761 1.11379 11.4475 1.11379 11.7404 1.40669C12.0333 1.69959 12.0333 2.171 12.0333 3.11382L12.0332 9.02206L10.215 11.0221L8.39684 13.0221H4.03323C3.09041 13.0221 2.619 13.0221 2.3261 12.7292C2.03321 12.4363 2.03321 11.9649 2.03323 11.022L2.03331 3.11377Z" fill="#D9D9D9"/>
<path fill-rule="evenodd" clip-rule="evenodd" d="M8.37524 13.022H8.3966L10.2148 11.022L12.033 9.02197V9.00391H9.97524C9.41519 9.00391 9.13517 9.00391 8.92125 9.1129C8.73309 9.20877 8.58011 9.36175 8.48424 9.54992C8.37524 9.76383 8.37524 10.0439 8.37524 10.6039V13.022Z" fill="white"/>
</svg>
