<svg width="16" height="16" viewBox="0 0 16 16" fill="none" xmlns="http://www.w3.org/2000/svg">
<g clip-path="url(#clip0_1608_31863)">
<rect x="1" y="1" width="14" height="14" rx="7" fill="#D9D9D9"/>
<path d="M8 2.00007C6.81331 2.00007 5.65327 2.35196 4.66658 3.01125C3.67988 3.67054 2.91085 4.60761 2.45672 5.70397C2.0026 6.80033 1.88378 8.00673 2.11529 9.17061C2.3468 10.3345 2.91824 11.4036 3.75736 12.2427L8 8.00007V2.00007Z" fill="#969696"/>
<path d="M10.8615 9.61998L9.12912 8.96298C8.85789 8.86012 8.72228 8.80869 8.63383 8.87659C8.54538 8.9445 8.56003 9.08879 8.58932 9.37739L8.63567 9.83405C8.68322 10.3025 8.707 10.5367 8.57919 10.5971C8.45138 10.6575 8.28553 10.4904 7.95383 10.1562L5.11362 7.29483L5.11362 7.29483C4.84649 7.02571 4.71292 6.89115 4.75859 6.77073C4.80426 6.65032 4.99346 6.63817 5.37187 6.61386L9.39526 6.35545C9.86514 6.32527 10.1001 6.31018 10.1557 6.44013C10.2113 6.57009 10.0382 6.72964 9.69198 7.04875L9.35447 7.35983C9.14117 7.55642 9.03452 7.65472 9.0557 7.7642C9.07688 7.87367 9.21249 7.92511 9.48372 8.02797L11.2161 8.68497C11.4743 8.78289 11.6042 9.07158 11.5063 9.32978C11.4084 9.58797 11.1197 9.7179 10.8615 9.61998Z" fill="white"/>
</g>
<defs>
<clipPath id="clip0_1608_31863">
<rect width="16" height="16" fill="white"/>
</clipPath>
</defs>
</svg>
