<svg width="16" height="16" viewBox="0 0 16 16" fill="none" xmlns="http://www.w3.org/2000/svg">
<g opacity="0.6">
<path d="M2 13V5C2 3.89543 2.89516 3 3.99973 3C4.68036 3 5.41598 3 6 3C7.5 3 7.5 4.5 8.5 4.5C8.97931 4.5 10.033 4.5 11.0003 4.5C12.1048 4.5 13 5.39543 13 6.5M2 13L3.7828 7.20591C3.9119 6.78632 4.29957 6.5 4.73857 6.5H13M2 13H11.0229C11.9009 13 12.6762 12.4274 12.9344 11.5882L14.1018 7.79409C14.2997 7.15103 13.8188 6.5 13.146 6.5H13" stroke="#A0A0A1" stroke-width="1.5" stroke-linecap="round"/>
</g>
</svg>
