<svg xmlns="http://www.w3.org/2000/svg"  viewBox="0 0 48 48" width="50px" height="50px" baseProfile="basic"><linearGradient id="0F8IuPOb8yX5zobD_LR5La" x1="24" x2="24" y1="12.096" y2="54.521" gradientUnits="userSpaceOnUse"><stop offset="0" stop-color="#262626" stop-opacity="0"/><stop offset="1" stop-color="#262626" stop-opacity=".8"/></linearGradient><path fill="url(#0F8IuPOb8yX5zobD_LR5La)" d="M43.922,25.125L42,20H32H16H6l-1.922,5.125c-0.636,1.696-0.053,3.607,1.42,4.659L24,43	l18.502-13.215C43.975,28.732,44.558,26.821,43.922,25.125z"/><linearGradient id="0F8IuPOb8yX5zobD_LR5Lb" x1="38.859" x2="23.974" y1="37.359" y2="22.474" gradientUnits="userSpaceOnUse"><stop offset="0" stop-color="#262626" stop-opacity="0"/><stop offset="1" stop-color="#262626" stop-opacity=".8"/></linearGradient><polygon fill="url(#0F8IuPOb8yX5zobD_LR5Lb)" points="24,43 42,20 32,20"/><linearGradient id="0F8IuPOb8yX5zobD_LR5Lc" x1="48.145" x2="28.298" y1="26.145" y2="6.298" gradientUnits="userSpaceOnUse"><stop offset="0" stop-color="#262626" stop-opacity="0"/><stop offset="1" stop-color="#262626" stop-opacity=".8"/></linearGradient><polygon fill="url(#0F8IuPOb8yX5zobD_LR5Lc)" points="37,5 42,20 32,20"/><linearGradient id="0F8IuPOb8yX5zobD_LR5Ld" x1="9.141" x2="24.026" y1="37.359" y2="22.474" gradientUnits="userSpaceOnUse"><stop offset="0" stop-color="#262626" stop-opacity="0"/><stop offset="1" stop-color="#262626" stop-opacity=".8"/></linearGradient><polygon fill="url(#0F8IuPOb8yX5zobD_LR5Ld)" points="24,43 6,20 16,20"/><linearGradient id="0F8IuPOb8yX5zobD_LR5Le" x1="-.145" x2="19.702" y1="26.145" y2="6.298" gradientUnits="userSpaceOnUse"><stop offset="0" stop-color="#262626" stop-opacity="0"/><stop offset="1" stop-color="#262626" stop-opacity=".8"/></linearGradient><polygon fill="url(#0F8IuPOb8yX5zobD_LR5Le)" points="11,5 6,20 16,20"/></svg>
