<svg width="16" height="16" viewBox="0 0 16 16" fill="none" xmlns="http://www.w3.org/2000/svg">
<path d="M2 8.19107C2 7.61297 2 7.32392 2.07489 7.058C2.14123 6.82245 2.25024 6.60108 2.39649 6.40488C2.5616 6.18338 2.79071 6.00715 3.24893 5.65467L6.04893 3.50083C6.74731 2.96361 7.0965 2.695 7.48144 2.59166C7.82113 2.50047 8.17887 2.50047 8.51856 2.59166C8.9035 2.695 9.25269 2.96361 9.95107 3.50083L12.7511 5.65467C13.2093 6.00715 13.4384 6.18338 13.6035 6.40488C13.7498 6.60108 13.8588 6.82245 13.9251 7.058C14 7.32392 14 7.61297 14 8.19107V10.8C14 11.9201 14 12.4802 13.782 12.908C13.5903 13.2843 13.2843 13.5903 12.908 13.782C12.4802 14 11.9201 14 10.8 14H5.2C4.0799 14 3.51984 14 3.09202 13.782C2.71569 13.5903 2.40973 13.2843 2.21799 12.908C2 12.4802 2 11.9201 2 10.8V8.19107Z" fill="#969696"/>
<path fill-rule="evenodd" clip-rule="evenodd" d="M10.7847 13.9999C10.6118 13.9999 10.4555 13.8973 10.3868 13.7387L8.38351 9.11585C8.29721 8.9167 8 8.97833 8 9.19538V12.9999C8 13.5522 7.55228 13.9999 7 13.9999H10.7847Z" fill="#D9D9D9"/>
</svg>
