<svg preserveAspectRatio="none" width="100%" height="100%" overflow="visible" style="display: block;" viewBox="0 0 12 14.25" fill="none" xmlns="http://www.w3.org/2000/svg">
<path id="Exclude" fill-rule="evenodd" clip-rule="evenodd" d="M6 0C5.58579 0 5.25 0.335786 5.25 0.75V2.29642C2.29027 2.66549 0 5.19029 0 8.25C0 11.5637 2.68629 14.25 6 14.25C9.31371 14.25 12 11.5637 12 8.25C12 5.19029 9.70973 2.66549 6.75 2.29642V0.75C6.75 0.335786 6.41421 0 6 0ZM6.75 2.29642C6.5043 2.26578 6.254 2.25 6 2.25C5.746 2.25 5.4957 2.26578 5.25 2.29642V7.84863L3.41602 6.62598C3.07137 6.39621 2.60574 6.48934 2.37598 6.83398C2.14621 7.17863 2.23934 7.64426 2.58398 7.87402L5.58398 9.87402C5.83591 10.042 6.16409 10.042 6.41602 9.87402L9.41602 7.87402C9.76066 7.64426 9.85379 7.17863 9.62402 6.83398C9.39426 6.48934 8.92863 6.39621 8.58398 6.62598L6.75 7.84863V2.29642Z" fill="var(--fill-0, #969696)"/>
</svg>
