<svg width="16" height="16" viewBox="0 0 16 16" fill="none" xmlns="http://www.w3.org/2000/svg">
<path d="M8 3C8 2.44772 8.44772 2 9 2C9.55228 2 10 2.44772 10 3V5H8V3Z" fill="#D9D9D9"/>
<path d="M4 3C4 2.44772 4.44772 2 5 2C5.55228 2 6 2.44772 6 3V5H4V3Z" fill="#D9D9D9"/>
<rect x="6" y="8" width="2" height="7" fill="#969696"/>
<path fill-rule="evenodd" clip-rule="evenodd" d="M1 7C1 6.44772 1.44772 6 2 6H12C12.5523 6 13 6.44772 13 7C13 7.18152 12.9516 7.35175 12.8671 7.4985C12.6757 7.46372 12.4786 7.44556 12.2772 7.44556C10.4673 7.44556 9 8.91282 9 10.7228C9 11.3212 9.16039 11.8821 9.44051 12.365C8.71867 12.7694 7.88627 13 7 13C4.23858 13 2 10.7614 2 8C1.44772 8 1 7.55228 1 7Z" fill="#969696"/>
<path fill-rule="evenodd" clip-rule="evenodd" d="M15.0003 10.7228C15.0003 12.2266 13.7813 13.4456 12.2775 13.4456C10.7737 13.4456 9.55469 12.2266 9.55469 10.7228C9.55469 9.21904 10.7737 8 12.2775 8C13.7813 8 15.0003 9.21904 15.0003 10.7228ZM11.8728 9.73342C11.8728 9.50999 12.0539 9.32886 12.2773 9.32886C12.5008 9.32886 12.6819 9.50999 12.6819 9.73342V10.3183H13.2668C13.4903 10.3183 13.6714 10.4995 13.6714 10.7229C13.6714 10.9463 13.4903 11.1275 13.2668 11.1275H12.6819V11.7124C12.6819 11.9358 12.5008 12.1169 12.2773 12.1169C12.0539 12.1169 11.8728 11.9358 11.8728 11.7124V11.1275H11.2879C11.0644 11.1275 10.8833 10.9463 10.8833 10.7229C10.8833 10.4995 11.0644 10.3183 11.2879 10.3183H11.8728V9.73342Z" fill="#D9D9D9"/>
</svg>
