<svg width="16" height="16" viewBox="0 0 16 16" fill="none" xmlns="http://www.w3.org/2000/svg">
<path fill-rule="evenodd" clip-rule="evenodd" d="M14 5.29375C14 4.17365 14 3.61359 13.782 3.18577C13.5903 2.80944 13.2843 2.50348 12.908 2.31174C12.4802 2.09375 11.9201 2.09375 10.8 2.09375H5.2C4.0799 2.09375 3.51984 2.09375 3.09202 2.31174C2.71569 2.50348 2.40973 2.80944 2.21799 3.18577C2 3.61359 2 4.17365 2 5.29375V10.8C2 11.9201 2 12.4802 2.21799 12.908C2.40973 13.2843 2.71569 13.5903 3.09202 13.782C3.51984 14 4.0799 14 5.2 14H10.8C11.9201 14 12.4802 14 12.908 13.782C13.2843 13.5903 13.5903 13.2843 13.782 12.908C14 12.4802 14 11.9201 14 10.8V5.29375ZM12.2317 3.45728C12.5078 3.45728 12.7317 3.68113 12.7317 3.95728V8.26837C12.7317 8.48929 12.5526 8.66837 12.3317 8.66837H10.3942C10.1181 8.66837 9.89421 8.89223 9.89421 9.16837V10.2528C9.89421 10.529 9.67036 10.7528 9.39421 10.7528H6.61091C6.33477 10.7528 6.11091 10.529 6.11091 10.2528V9.16837C6.11091 8.89223 5.88706 8.66837 5.61091 8.66837H3.67344C3.45252 8.66837 3.27344 8.48929 3.27344 8.26837V3.95727C3.27344 3.68113 3.4973 3.45728 3.77344 3.45728H12.2317Z" fill="#969696"/>
</svg>
