<svg width="14" height="12" viewBox="0 0 14 12" fill="none" xmlns="http://www.w3.org/2000/svg">
<path d="M0.643402 3.27574C0.400969 3.17184 0.400969 2.82816 0.643402 2.72426L6.60608 0.168823C6.85763 0.0610159 7.14237 0.0610159 7.39392 0.168823L13.3566 2.72426C13.599 2.82816 13.599 3.17184 13.3566 3.27574L7.39392 5.83118C7.14237 5.93898 6.85763 5.93898 6.60608 5.83118L0.643402 3.27574Z" fill="#6B6F76"/>
<path d="M13.3571 5.72461C13.5988 5.8287 13.5988 6.17128 13.3571 6.27539L7.39419 8.83105C7.14264 8.93886 6.85765 8.93886 6.6061 8.83105L0.643211 6.27539C0.401165 6.17138 0.401147 5.82861 0.643211 5.72461L2.33364 5L6.6061 6.83105C6.85764 6.93884 7.14266 6.93885 7.39419 6.83105L11.6657 5L13.3571 5.72461Z" fill="#6B6F76"/>
<path d="M13.3571 8.72461C13.5988 8.8287 13.5988 9.17128 13.3571 9.27539L7.39419 11.8311C7.14264 11.9389 6.85765 11.9389 6.6061 11.8311L0.643211 9.27539C0.401165 9.17138 0.401147 8.82861 0.643211 8.72461L2.33364 8L6.6061 9.83105C6.85764 9.93884 7.14266 9.93885 7.39419 9.83105L11.6657 8L13.3571 8.72461Z" fill="#6B6F76"/>
</svg>
