<svg width="16" height="16" viewBox="0 0 16 16" fill="none" xmlns="http://www.w3.org/2000/svg">
<path fill-rule="evenodd" clip-rule="evenodd" d="M9.19612 1.98058C9.08208 1.41041 8.58146 1 8 1C7.41854 1 6.91792 1.41041 6.80388 1.98058L6.65598 2.72012C6.59553 3.02233 6.36896 3.26196 6.08431 3.38013C5.79954 3.49834 5.47367 3.48726 5.21712 3.31623L4.58971 2.89796C4.10591 2.57542 3.4617 2.63921 3.05055 3.05036C2.6394 3.46152 2.57561 4.10572 2.89814 4.58952L3.31628 5.21673C3.48737 5.47336 3.49844 5.79934 3.38018 6.08419C3.26198 6.3689 3.02229 6.59554 2.72 6.656L1.98058 6.80388C1.41042 6.91792 1 7.41854 1 8C1 8.58146 1.41041 9.08208 1.98058 9.19612L2.72006 9.34401C3.02231 9.40446 3.26197 9.63107 3.38015 9.91575C3.49839 10.2006 3.48732 10.5265 3.31626 10.7831L2.89796 11.4105C2.57542 11.8943 2.63921 12.5385 3.05036 12.9497C3.46152 13.3608 4.10572 13.4246 4.58952 13.1021L5.21704 12.6838C5.4736 12.5127 5.7995 12.5016 6.08428 12.6199C6.36894 12.738 6.59554 12.9777 6.65598 13.2799L6.80388 14.0194C6.91792 14.5896 7.41854 15 8 15C8.58146 15 9.08208 14.5896 9.19612 14.0194L9.34401 13.2799C9.40446 12.9777 9.63107 12.738 9.91576 12.6198C10.2006 12.5016 10.5265 12.5127 10.7831 12.6837L11.4109 13.1023C11.8947 13.4248 12.5389 13.361 12.95 12.9499C13.3612 12.5387 13.425 11.8945 13.1025 11.4107L12.6838 10.7827C12.5128 10.5262 12.5017 10.2004 12.6199 9.91564C12.738 9.63102 12.9776 9.40447 13.2798 9.34404L14.0194 9.19612C14.5896 9.08208 15 8.58146 15 8C15 7.41854 14.5896 6.91792 14.0194 6.80388L13.2799 6.65598C12.9777 6.59553 12.738 6.36895 12.6199 6.08431C12.5017 5.79954 12.5127 5.47366 12.6838 5.21711L13.1023 4.58936C13.4248 4.10556 13.361 3.46135 12.9499 3.0502C12.5387 2.63905 11.8945 2.57526 11.4107 2.89779L10.783 3.31625C10.5264 3.4873 10.2005 3.49838 9.91573 3.38015C9.63106 3.26197 9.40446 3.02232 9.34402 2.72008L9.19612 1.98058ZM8 6C6.89543 6 6 6.89543 6 8C6 9.10457 6.89543 10 8 10C9.10457 10 10 9.10457 10 8C10 6.89543 9.10457 6 8 6Z" fill="#969696"/>
</svg>
