<svg xmlns="http://www.w3.org/2000/svg"  viewBox="0 0 48 48" width="48px" height="48px" baseProfile="basic"><linearGradient id="YthMCHMfzNdI8j5UM4eSJa" x1="9.86" x2="49.614" y1="12.17" y2="45.527" gradientUnits="userSpaceOnUse"><stop offset="0" stop-color="#262626" stop-opacity="0"/><stop offset="1" stop-color="#262626" stop-opacity=".8"/></linearGradient><path fill="url(#YthMCHMfzNdI8j5UM4eSJa)" d="M33.423,31.114c-1.768-6.055-7.135-23.46-7.559-24.716C25.865,6.179,25.031,6,24.001,6	c-1.029,0-1.864,0.179-1.864,0.398c-0.404,1.217-5.615,18.046-7.47,24.386c-0.449,1.337-0.794,2.398-0.794,2.986	c0,2.386,4.533,4.229,10.128,4.229c5.595,0,10.131-1.844,10.131-4.229C34.132,33.305,33.83,32.321,33.423,31.114z"/><linearGradient id="YthMCHMfzNdI8j5UM4eSJb" x1="19.199" x2="30.144" y1="20.364" y2="50.436" gradientUnits="userSpaceOnUse"><stop offset="0" stop-color="#262626" stop-opacity="0"/><stop offset="1" stop-color="#262626" stop-opacity=".8"/></linearGradient><path fill="url(#YthMCHMfzNdI8j5UM4eSJb)" d="M33.196,30.447C32.032,32.232,28.341,34,24.046,34c-4.34,0-8.156-1.696-9.281-3.51	c-0.499,1.483-0.892,2.647-0.892,3.28c0,2.386,4.533,4.229,10.128,4.229s10.131-1.844,10.131-4.229	C34.132,33.222,33.713,31.955,33.196,30.447z"/><linearGradient id="YthMCHMfzNdI8j5UM4eSJc" x1="18.626" x2="29.585" y1="9.019" y2="39.128" gradientUnits="userSpaceOnUse"><stop offset="0" stop-color="#262626" stop-opacity="0"/><stop offset="1" stop-color="#262626" stop-opacity=".8"/></linearGradient><path fill="url(#YthMCHMfzNdI8j5UM4eSJc)" d="M31.387,24.314l-2.074-6.794c0,0-1.857,1.479-5.311,1.479c-3.453,0-5.316-1.479-5.316-1.479	l-2.081,6.806c0,0,2.068,2.674,7.397,2.674C29.375,27,31.387,24.314,31.387,24.314z"/><linearGradient id="YthMCHMfzNdI8j5UM4eSJd" x1="20.921" x2="26.961" y1="2.031" y2="18.625" gradientUnits="userSpaceOnUse"><stop offset="0" stop-color="#262626" stop-opacity="0"/><stop offset="1" stop-color="#262626" stop-opacity=".8"/></linearGradient><path fill="url(#YthMCHMfzNdI8j5UM4eSJd)" d="M27.241,10.809l-1.376-4.41c0,0-0.083-0.398-1.864-0.398c-1.844,0-1.864,0.398-1.864,0.398	l-1.376,4.407c0,0,0.885,1.194,3.239,1.194C26.355,12,27.241,10.809,27.241,10.809z"/><linearGradient id="YthMCHMfzNdI8j5UM4eSJe" x1="23.42" x2="23.42" y1="24.882" y2="53.413" gradientUnits="userSpaceOnUse"><stop offset="0" stop-color="#262626" stop-opacity="0"/><stop offset="1" stop-color="#262626" stop-opacity=".8"/></linearGradient><path fill="url(#YthMCHMfzNdI8j5UM4eSJe)" d="M37,28h-4.502c0.362,1.207,0.678,2.271,0.924,3.114c0.407,1.207,0.709,2.191,0.709,2.656	c0,2.385-4.536,4.229-10.131,4.229c-5.595,0-10.128-1.843-10.128-4.229c0-0.589,0.345-1.65,0.794-2.986	C14.896,30,15.177,29.055,15.494,28h-1.611c-1.722,0-3.25,1.102-3.795,2.735L6,43h31.838c2.048,0,3.494-2.006,2.846-3.949L37,28z"/></svg>