<svg width="10" height="8" viewBox="0 0 10 8" fill="none" xmlns="http://www.w3.org/2000/svg">
<path d="M9.45825 0.5C9.45825 0.223858 9.23439 0 8.95825 0H0.5C0.223858 0 0 0.223857 0 0.499999V4.8111C0 5.03201 0.179086 5.2111 0.4 5.2111H2.33748C2.61362 5.2111 2.83748 5.43496 2.83748 5.7111V6.79554C2.83748 7.07168 3.06133 7.29554 3.33748 7.29554H6.12078C6.39692 7.29554 6.62078 7.07168 6.62078 6.79554V5.7111C6.62078 5.43496 6.84463 5.2111 7.12078 5.2111H9.05825C9.27917 5.2111 9.45825 5.03201 9.45825 4.8111V0.5Z" fill="#D9D9D9"/>
</svg>
