<svg width="24" height="26" viewBox="0 0 24.061 26.2495" fill="none" xmlns="http://www.w3.org/2000/svg">
<path d="M12.0303 10.356C18.6744 10.356 24.0605 17.0566 24.0605 25.3218C24.0605 25.8416 23.6288 26.2495 23.109 26.2495H0.951561C0.431757 26.2495 1.24561e-05 25.8416 0 25.3218C0 17.0566 5.38613 10.356 12.0303 10.356Z" fill="white"/>
<path d="M12.0308 16.1191C5.38661 16.1191 0.000493778 9.3234 0.000489608 0.94043C0.000489654 0.413626 0.437938 0 0.964741 0L23.0968 0C23.6236 0 24.061 0.413629 24.061 0.940432C24.061 9.32339 18.6749 16.1191 12.0308 16.1191Z" fill="white"/>
<path d="M19.7117 3.28394C19.9944 3.28414 20.2322 3.50412 20.2322 3.78687C20.232 6.78663 18.5802 9.40477 16.1262 10.8046C15.3864 11.2265 14.8386 11.966 14.8386 12.8176C14.8386 13.6504 15.3637 14.3779 16.0758 14.8097C18.5577 16.3146 20.2321 19.1608 20.2322 22.4246C20.2322 22.73 19.976 22.9683 19.6707 22.9685H4.38843C4.08306 22.9683 3.8269 22.73 3.8269 22.4246C3.82704 18.8986 5.78118 15.8609 8.5965 14.4746C9.24636 14.1546 9.72632 13.5298 9.72632 12.8054C9.72632 12.068 9.23001 11.435 8.56047 11.126C5.7647 9.8358 3.82715 7.03581 3.8269 3.78687C3.8269 3.50412 4.06471 3.28316 4.34741 3.28296L19.7117 3.28394Z" fill="white"/>
</svg>
