<svg width="32" height="32" viewBox="0 0 32 32" fill="none" xmlns="http://www.w3.org/2000/svg">
<path fill-rule="evenodd" clip-rule="evenodd" d="M6.79679 5.09961C6.36535 5.09961 6.00757 5.43822 6.00757 5.86966C6.00757 10.0017 7.62837 13.6628 10.1222 15.9228C7.62876 18.2151 6.00826 21.9281 6.00826 26.1186C6.00826 26.5565 6.37131 26.9004 6.80924 26.9004L25.191 26.9004C25.629 26.9004 25.992 26.5565 25.992 26.1186C25.992 21.9277 24.3712 18.2144 21.8773 15.9222C24.3708 13.6621 25.9913 10.0013 25.9913 5.86966C25.9913 5.43822 25.6335 5.09961 25.2021 5.09961H6.79679ZM9.18794 23.7613C9.18794 23.9951 9.3829 24.177 9.61661 24.177L22.3846 24.177C22.6183 24.177 22.8132 23.9951 22.8132 23.7613C22.8132 21.0623 21.204 18.7345 18.8815 17.6626C18.3257 17.4061 17.9137 16.8806 17.9137 16.2685C17.9137 15.6672 18.3121 15.1485 18.8515 14.8829C21.1902 13.7314 22.8132 11.207 22.8132 8.27805C22.8132 8.0253 22.6028 7.828 22.3501 7.828L9.65109 7.82799C9.39833 7.82799 9.18794 8.0253 9.18794 8.27805C9.18794 10.9889 10.5783 13.3532 12.6395 14.6032C13.2312 14.9621 13.6676 15.5665 13.6676 16.2586C13.6676 16.9663 13.2123 17.5807 12.5977 17.9314C10.5595 19.0942 9.18794 21.2696 9.18794 23.7613Z" fill="#222528"/>
</svg>
