<svg width="16" height="16" viewBox="0 0 16 16" fill="none" xmlns="http://www.w3.org/2000/svg">
<g clip-path="url(#clip0_1022_65836)">
<path d="M10.75 2.25C10.75 2.83333 9.88246 3 9.25 3C6.64153 3 3.89726 4.73955 3.53927 7.0019C3.49611 7.27465 3.27614 7.5 3 7.5H1.5M2 10.25C2.39273 10.3809 3.06309 10.8923 3.72032 11.0087C4.00484 11.0592 4.29632 11.2406 4.36934 11.5201C4.52076 12.0999 4.64366 12.5159 4.25 13.5M8.61237 12.6464C8.11237 12.6464 6.11237 11.5464 6.11237 8.14644C6.11237 5.39644 7.86237 4.64643 10.3624 4.64644C11.8624 4.64644 12.8624 5.39644 12.8624 7.14644C12.8624 8.89644 11.1124 8.5 10.3624 9.25C9.61237 10 10.3624 12.6464 8.61237 12.6464ZM14.5 8C14.5 11.5899 11.5899 14.5 8 14.5C4.41015 14.5 1.5 11.5899 1.5 8C1.5 4.41015 4.41015 1.5 8 1.5C11.5899 1.5 14.5 4.41015 14.5 8Z" stroke="#F9F9F9" stroke-width="1.5"/>
</g>
<defs>
<clipPath id="clip0_1022_65836">
<rect width="16" height="16" fill="white"/>
</clipPath>
</defs>
</svg>
