<svg preserveAspectRatio="none" width="100%" height="100%" overflow="visible" style="display: block;" viewBox="0 0 65.5455 65.5455" fill="none" xmlns="http://www.w3.org/2000/svg">
<g id="Group">
<path id="Vector" d="M14.2015 0H51.344C59.1275 0 65.5455 6.418 65.5455 14.2015V51.344C65.5455 59.1275 59.1275 65.5455 51.344 65.5455H14.2015C6.418 65.5455 0 59.1275 0 51.344V14.2015C0 6.418 6.418 0 14.2015 0Z" fill="var(--fill-0, #FFD02F)"/>
<path id="Vector_2" fill-rule="evenodd" clip-rule="evenodd" d="M45.4721 8.19336H38.2348L44.2431 18.708L31.134 8.19336H23.8967L30.4512 21.0294L16.7959 8.19336H9.55859L16.7959 24.5797L9.55859 57.3525H16.7959L30.5878 22.2583L23.8967 57.3525H31.134L44.3796 19.9369L38.3713 57.3525H45.6086L58.7177 16.3865L45.4721 8.19336Z" fill="var(--fill-0, #050038)"/>
</g>
</svg>
