<svg width="17" height="19" viewBox="0 0 17 19" fill="none" xmlns="http://www.w3.org/2000/svg">
<path d="M8.5 7.31836C13.1944 7.31836 17 12.0528 17 17.8926C17 18.2597 16.694 18.5479 16.3268 18.5479H0.673153C0.305992 18.5479 1.23738e-05 18.2597 0 17.8926C0 12.0528 3.80558 7.31836 8.5 7.31836Z" fill="#141414"/>
<path d="M8.5 11.3906C3.80558 11.3906 4.19771e-07 6.589 9.37575e-07 0.666014C3.5653e-06 0.293457 0.310359 0.000975103 0.682916 0.000975136L16.3171 0.000976503C16.6896 0.000976535 17 0.293459 17 0.666016C17 6.589 13.1944 11.3906 8.5 11.3906Z" fill="#141414"/>
<path d="M13.9268 2.32031C14.1266 2.32046 14.2949 2.47593 14.2949 2.67578C14.2948 4.79508 13.1282 6.64475 11.3948 7.63388C10.8717 7.93233 10.4844 8.45519 10.4844 9.05738C10.4844 9.64629 10.8557 10.1607 11.3592 10.4661C13.1123 11.5294 14.2948 13.54 14.2949 15.8457C14.2949 16.0612 14.1139 16.2294 13.8984 16.2295H3.10059C2.88513 16.2294 2.7041 16.0612 2.7041 15.8457C2.70423 13.3548 4.08493 11.209 6.07384 10.2295C6.53352 10.0031 6.87305 9.56113 6.87305 9.04874C6.87305 8.52713 6.52196 8.07935 6.04837 7.86074C4.07321 6.94903 2.70422 4.9711 2.7041 2.67578C2.7041 2.47593 2.87245 2.32046 3.07227 2.32031H13.9268Z" fill="white"/>
</svg>
