<svg width="2000" height="1400" viewBox="0 0 2000 1400" fill="none" xmlns="http://www.w3.org/2000/svg">
<g clip-path="url(#clip0_1_7052)">
<path d="M1291.24 650.659L1284.53 646.218L1279.29 658.4L1285.99 662.841L1291.24 650.659Z" fill="#DDB6C6"/>
<path d="M1568.65 1000.24L1561.85 990.462L1541.48 1005.27L1548.29 1015.05L1568.65 1000.24Z" fill="#F1D4D4"/>
<path d="M910.802 1145.92L904.642 1137.83L887.298 1150.76L893.458 1158.85L910.802 1145.92Z" fill="#AC8DAF"/>
<path d="M1364.47 1281.99L1371.12 1279.75L1357.88 1260.16L1351.23 1262.41L1364.47 1281.99Z" fill="#484C7F"/>
<path d="M250.6 613.123L248.794 604.19L229.184 601.875L230.989 610.808L250.6 613.123Z" fill="#484C7F"/>
<path d="M347.207 192.125L354.231 190.669L352.999 176.973L345.975 178.428L347.207 192.125Z" fill="#484C7F"/>
<path d="M812.063 317.269L820.094 311.993L807.504 297.851L799.473 303.127L812.063 317.269Z" fill="#484C7F"/>
<path d="M1234.99 1101.44L1235.89 1091.58L1203.52 1072.94L1202.62 1082.81L1234.99 1101.44Z" fill="#484C7F"/>
<path d="M1956.51 19.9624L1953.11 14.4385L1936.49 26.58L1939.89 32.104L1956.51 19.9624Z" fill="#DDB6C6"/>
<path d="M528.248 412.453L531.569 400.699L504.629 394.87L501.309 406.623L528.248 412.453Z" fill="#484C7F"/>
<path d="M542.583 314.437L541.745 302.446L519.809 303.598L520.646 315.589L542.583 314.437Z" fill="#484C7F"/>
<path d="M1758.92 394.076L1770.19 395.631L1765.1 371.498L1753.83 369.943L1758.92 394.076Z" fill="#AC8DAF"/>
<path d="M949.88 755.802L954.909 746.229L941.837 741.284L936.808 750.857L949.88 755.802Z" fill="#DDB6C6"/>
<path d="M738.908 1399.22L744.809 1396.75L733.311 1382.59L727.41 1385.06L738.908 1399.22Z" fill="#DDB6C6"/>
<path d="M864.793 197.558L860.844 188.693L851.465 190.43L855.414 199.294L864.793 197.558Z" fill="#484C7F"/>
<path d="M1067.63 114.616L1060.92 105.255L1034.39 125.47L1041.1 134.831L1067.63 114.616Z" fill="#DDB6C6"/>
<path d="M329.03 867.577L322.909 860.275L315.684 864.727L321.805 872.028L329.03 867.577Z" fill="#F1D4D4"/>
<path d="M237.83 875.759L234.146 865.404L216.782 868.169L220.465 878.525L237.83 875.759Z" fill="#F1D4D4"/>
<path d="M1241 301.145L1236.12 292.954L1219.41 303.852L1224.29 312.043L1241 301.145Z" fill="#DDB6C6"/>
<path d="M919.206 1227.89L911.378 1214.6L877.138 1217.91L884.966 1231.2L919.206 1227.89Z" fill="#F1D4D4"/>
<path d="M941.428 960.045L947.681 952.208L939.461 946.678L933.208 954.515L941.428 960.045Z" fill="#F1D4D4"/>
<path d="M892.473 152.976L880.568 152.765L882.283 170.939L894.188 171.15L892.473 152.976Z" fill="#AC8DAF"/>
<path d="M35.8775 32.3366L26.4755 28.3174L24.7228 44.7985L34.1248 48.8178L35.8775 32.3366Z" fill="#F1D4D4"/>
<path d="M1668.88 1260.7L1656.4 1253.41L1644.2 1281.7L1656.67 1289L1668.88 1260.7Z" fill="#DDB6C6"/>
<path d="M521.65 438.809L509.968 433.331L502.688 456.625L514.37 462.103L521.65 438.809Z" fill="#DDB6C6"/>
<path d="M1984.34 768.075L1975.13 765.675L1976.31 782.598L1985.52 784.999L1984.34 768.075Z" fill="#AC8DAF"/>
<path d="M362.371 1270.11L365.7 1261.43L346.279 1249.28L342.951 1257.96L362.371 1270.11Z" fill="#AC8DAF"/>
<path d="M157.162 341.935L168.986 338.789L154.436 309.676L142.612 312.821L157.162 341.935Z" fill="#F1D4D4"/>
<path d="M1576 771.022L1583.3 765.754L1579.56 759.693L1572.26 764.962L1576 771.022Z" fill="#DDB6C6"/>
<path d="M48.9717 1225.4L41.0925 1223.11L39.6309 1244.01L47.5101 1246.3L48.9717 1225.4Z" fill="#484C7F"/>
<path d="M242.025 495.309L244.508 483.754L232.852 479.999L230.369 491.554L242.025 495.309Z" fill="#AC8DAF"/>
<path d="M608.472 947.315L611.476 940.124L591.961 930.916L588.957 938.108L608.472 947.315Z" fill="#AC8DAF"/>
<path d="M521.268 1300.31L512.065 1296.65L510.283 1306.7L519.486 1310.36L521.268 1300.31Z" fill="#DDB6C6"/>
<path d="M1240.75 918.006L1243.15 911.025L1226.6 902.462L1224.2 909.442L1240.75 918.006Z" fill="#DDB6C6"/>
<path d="M1118.45 1214.31L1121.08 1207.65L1111.78 1204.56L1109.16 1211.22L1118.45 1214.31Z" fill="#484C7F"/>
<path d="M640.623 918.519L633.149 914.248L624.459 933.9L631.933 938.171L640.623 918.519Z" fill="#484C7F"/>
<path d="M1333.91 1035.59L1343.13 1033.95L1337.85 1015.36L1328.63 1017L1333.91 1035.59Z" fill="#DDB6C6"/>
<path d="M364.724 755.241L357.037 744.731L329.502 761.723L337.189 772.233L364.724 755.241Z" fill="#F1D4D4"/>
<path d="M1118.33 792.627L1126.89 786.632L1122 777.436L1113.44 783.431L1118.33 792.627Z" fill="#F1D4D4"/>
<path d="M406.657 170.896L399.946 163.754L394.438 169.962L401.149 177.104L406.657 170.896Z" fill="#AC8DAF"/>
<path d="M591.8 112.954L597.072 106.38L585.02 95.7993L579.749 102.373L591.8 112.954Z" fill="#F1D4D4"/>
<path d="M468.724 1344.27L464.278 1335.59L445.422 1343.31L449.869 1351.99L468.724 1344.27Z" fill="#484C7F"/>
<path d="M1020.19 991.44L1010.07 986.082L1005 1011.05L1015.13 1016.41L1020.19 991.44Z" fill="#AC8DAF"/>
<path d="M654.151 534.838L655.023 523.73L640.295 522.138L639.422 533.246L654.151 534.838Z" fill="#F1D4D4"/>
<path d="M346.118 776.179L350.866 768.191L341.031 761.57L336.282 769.558L346.118 776.179Z" fill="#484C7F"/>
<path d="M906.163 1230.33L902.673 1223.16L890.904 1225.03L894.393 1232.21L906.163 1230.33Z" fill="#F1D4D4"/>
<path d="M818.563 583.193L823.232 572.025L805.206 563.738L800.537 574.906L818.563 583.193Z" fill="#F1D4D4"/>
<path d="M216.754 1356.6L220.314 1347.35L200.016 1338.29L196.455 1347.54L216.754 1356.6Z" fill="#AC8DAF"/>
<path d="M849.752 527.137L857.665 520.049L847.245 508.53L839.332 515.618L849.752 527.137Z" fill="#DDB6C6"/>
<path d="M1672.56 981.192L1684.24 976.677L1675.59 956.639L1663.92 961.154L1672.56 981.192Z" fill="#484C7F"/>
<path d="M781.536 394.037L771.312 392.118L772.31 412.846L782.533 414.764L781.536 394.037Z" fill="#DDB6C6"/>
<path d="M157.679 267.183L169.808 264.477L156.561 233.133L144.433 235.839L157.679 267.183Z" fill="#AC8DAF"/>
<path d="M906.5 987.77L895.939 983.269L881.8 1010.19L892.361 1014.7L906.5 987.77Z" fill="#DDB6C6"/>
<path d="M1529.64 969.942L1538.55 963.194L1520.94 941.521L1512.03 948.268L1529.64 969.942Z" fill="#DDB6C6"/>
<path d="M1258.1 521.658L1264.4 517.658L1256.91 508.129L1250.61 512.128L1258.1 521.658Z" fill="#F1D4D4"/>
<path d="M791.972 876.35L805.098 874.527L806.615 845.594L793.489 847.417L791.972 876.35Z" fill="#484C7F"/>
<path d="M422.295 1320.54L414.907 1315.95L411.548 1323.61L418.936 1328.2L422.295 1320.54Z" fill="#484C7F"/>
<path d="M1645.87 1298.39L1639.05 1292.7L1627.96 1306.92L1634.77 1312.61L1645.87 1298.39Z" fill="#DDB6C6"/>
<path d="M703.708 1306.62L708.072 1300.87L684.884 1281.93L680.521 1287.69L703.708 1306.62Z" fill="#DDB6C6"/>
<path d="M344.922 1314.51L348.329 1304.3L335.54 1296.84L332.133 1307.05L344.922 1314.51Z" fill="#F1D4D4"/>
<path d="M528.178 1343.5L521.792 1330.5L498.3 1333.57L504.686 1346.57L528.178 1343.5Z" fill="#484C7F"/>
<path d="M1919.33 377.836L1926.33 368.296L1912.18 359.284L1905.18 368.823L1919.33 377.836Z" fill="#AC8DAF"/>
<path d="M1249.87 508.27L1243.45 499.248L1230.72 506.288L1237.14 515.311L1249.87 508.27Z" fill="#484C7F"/>
<path d="M329.06 684.976L335.039 680.466L325.425 666.643L319.447 671.154L329.06 684.976Z" fill="#AC8DAF"/>
<path d="M1630.34 746.632L1638.48 741.212L1626.48 720.435L1618.35 725.854L1630.34 746.632Z" fill="#DDB6C6"/>
<path d="M1935.94 111.063L1933.2 104.668L1921.24 109.956L1923.97 116.35L1935.94 111.063Z" fill="#AC8DAF"/>
<path d="M971.788 1092.04L961.424 1084.56L951.948 1099.71L962.312 1107.2L971.788 1092.04Z" fill="#484C7F"/>
<path d="M1303.06 1033.38L1314.43 1029.63L1302.21 1000.48L1290.85 1004.23L1303.06 1033.38Z" fill="#DDB6C6"/>
<path d="M417.655 1167.84L413.648 1160.52L398.414 1162.38L402.421 1169.7L417.655 1167.84Z" fill="#484C7F"/>
<path d="M689.652 440.287L700.795 433.98L685.344 407.726L674.2 414.032L689.652 440.287Z" fill="#DDB6C6"/>
<path d="M1657.46 696.644L1657.41 686.551L1629.02 675.426L1629.07 685.519L1657.46 696.644Z" fill="#AC8DAF"/>
<path d="M275.33 406.129L281.949 405.873L279.67 398.558L273.051 398.813L275.33 406.129Z" fill="#F1D4D4"/>
<path d="M1992.61 894.233L1979.18 892.637L1983.47 908.637L1996.9 910.233L1992.61 894.233Z" fill="#AC8DAF"/>
<path d="M1446.12 557.822L1453.14 557.456L1453.44 540.468L1446.43 540.835L1446.12 557.822Z" fill="#F1D4D4"/>
<path d="M1313.8 1299.84L1300.42 1295.39L1298.02 1319.85L1311.4 1324.31L1313.8 1299.84Z" fill="#AC8DAF"/>
<path d="M1188.7 551.819L1188.43 543.957L1174.05 540.012L1174.32 547.874L1188.7 551.819Z" fill="#484C7F"/>
<path d="M1548.88 1349.75L1548.4 1339.38L1521.37 1328.39L1521.85 1338.76L1548.88 1349.75Z" fill="#F1D4D4"/>
<path d="M575.777 198.871L566.914 189.834L547.956 207.74L556.819 216.776L575.777 198.871Z" fill="#484C7F"/>
<path d="M1910.69 446.862L1912.68 440.738L1901.83 435.405L1899.85 441.528L1910.69 446.862Z" fill="#AC8DAF"/>
<path d="M1100.5 1211.2L1087.6 1205.5L1080.45 1231.57L1093.35 1237.27L1100.5 1211.2Z" fill="#AC8DAF"/>
<path d="M1539.01 873.819L1531.06 862.073L1519.95 866.791L1527.9 878.538L1539.01 873.819Z" fill="#484C7F"/>
<path d="M1532.47 65.8022L1524.51 65.3794L1525.24 77.4807L1533.2 77.9035L1532.47 65.8022Z" fill="#484C7F"/>
<path d="M36.649 1310.78L29.4537 1309.23L20.3735 1326.18L27.5688 1327.73L36.649 1310.78Z" fill="#F1D4D4"/>
<path d="M1445.63 1355.73L1438.22 1345.92L1414.26 1361.73L1421.67 1371.53L1445.63 1355.73Z" fill="#DDB6C6"/>
<path d="M519.638 600.726L512.854 595.857L506.665 606.746L513.449 611.614L519.638 600.726Z" fill="#484C7F"/>
<path d="M1468.07 643.774L1474.89 640.771L1470.76 625.126L1463.95 628.13L1468.07 643.774Z" fill="#F1D4D4"/>
<path d="M464.962 1040.26L470.77 1037.81L464.387 1027.24L458.579 1029.69L464.962 1040.26Z" fill="#DDB6C6"/>
<path d="M1627.32 512.375L1628.58 500.348L1607.59 500.715L1606.33 512.743L1627.32 512.375Z" fill="#484C7F"/>
<path d="M1786.87 445.417L1779.9 438.135L1770.48 446.365L1777.46 453.647L1786.87 445.417Z" fill="#F1D4D4"/>
<path d="M838.489 746.245L832.089 736.142L808.71 750.794L815.11 760.897L838.489 746.245Z" fill="#484C7F"/>
<path d="M229.046 535.139L232.064 529.203L217.151 519.108L214.133 525.045L229.046 535.139Z" fill="#F1D4D4"/>
<path d="M1555.4 1168.76L1543.28 1161.71L1537.07 1177.89L1549.19 1184.95L1555.4 1168.76Z" fill="#DDB6C6"/>
<path d="M759.43 461.21L756.223 453.773L737.205 462.059L740.412 469.496L759.43 461.21Z" fill="#DDB6C6"/>
<path d="M1970.51 717.235L1977.18 716.621L1968.75 699.558L1962.08 700.173L1970.51 717.235Z" fill="#AC8DAF"/>
<path d="M111.277 506.266L112.544 498.25L93.2653 500.25L91.9991 508.266L111.277 506.266Z" fill="#F1D4D4"/>
<path d="M693.183 855.829L702.627 855.287L697.395 842.881L687.951 843.423L693.183 855.829Z" fill="#F1D4D4"/>
<path d="M1865.61 413.345L1856.88 405.985L1843.78 420.254L1852.52 427.614L1865.61 413.345Z" fill="#F1D4D4"/>
<path d="M889.464 1021.8L899.326 1021.45L894.195 1008.45L884.333 1008.8L889.464 1021.8Z" fill="#DDB6C6"/>
<path d="M774.989 1078.4L765.516 1070.17L750.222 1088.55L759.694 1096.78L774.989 1078.4Z" fill="#DDB6C6"/>
<path d="M720.78 625.074L710.8 622.99L708.745 642.601L718.725 644.685L720.78 625.074Z" fill="#484C7F"/>
<path d="M748.232 189.58L755.489 187.518L755.463 180.774L748.205 182.836L748.232 189.58Z" fill="#F1D4D4"/>
<path d="M375.5 485.741L363.686 475.632L356.535 483.818L368.348 493.927L375.5 485.741Z" fill="#DDB6C6"/>
<path d="M887.473 699.563L896.922 698.847L892.377 688.609L882.927 689.325L887.473 699.563Z" fill="#F1D4D4"/>
<path d="M1824.68 1023.13H1835.14L1818.1 989.486H1807.64L1824.68 1023.13Z" fill="#AC8DAF"/>
<path d="M1734.09 1140.1L1736.17 1130.23L1717.62 1126.92L1715.54 1136.79L1734.09 1140.1Z" fill="#484C7F"/>
<path d="M1577.3 627.009L1586.42 628.285L1584.05 613.153L1574.93 611.877L1577.3 627.009Z" fill="#AC8DAF"/>
<path d="M856.963 917.415L849.391 905.633L821.942 919.579L829.514 931.361L856.963 917.415Z" fill="#DDB6C6"/>
<path d="M1555.34 703.261L1568.75 704.88L1563.08 689.66L1549.67 688.04L1555.34 703.261Z" fill="#AC8DAF"/>
<path d="M1547.67 350.946L1552.5 344.059L1537.55 332.242L1532.72 339.129L1547.67 350.946Z" fill="#F1D4D4"/>
<path d="M833.967 739.48L823.629 733.085L816.159 745.876L826.497 752.27L833.967 739.48Z" fill="#AC8DAF"/>
<path d="M1014.54 1241.96L1007.89 1238.08L998.359 1252.97L1005.01 1256.85L1014.54 1241.96Z" fill="#DDB6C6"/>
<path d="M702.222 1313.91H714.22L702.235 1278.91H690.237L702.222 1313.91Z" fill="#DDB6C6"/>
<path d="M837.515 1210.81L830.427 1201.7L809.723 1213.17L816.81 1222.29L837.515 1210.81Z" fill="#AC8DAF"/>
<path d="M827.675 336.299L825.313 324.357L808.903 322.684L811.266 334.625L827.675 336.299Z" fill="#484C7F"/>
<path d="M1722.24 204.325L1719.41 196.359L1705.93 202.948L1708.75 210.914L1722.24 204.325Z" fill="#484C7F"/>
<path d="M1475.83 170.998L1469.08 162.064L1451.01 175.635L1457.76 184.568L1475.83 170.998Z" fill="#F1D4D4"/>
<path d="M1914.69 1111.47L1921.75 1107.35L1913.3 1091.9L1906.24 1096.02L1914.69 1111.47Z" fill="#F1D4D4"/>
<path d="M770.745 6.85223L762.474 -1.11865L737.533 25.6255L745.804 33.5964L770.745 6.85223Z" fill="#484C7F"/>
<path d="M386.825 678.012L393.769 676.79L392.86 667.877L385.916 669.1L386.825 678.012Z" fill="#F1D4D4"/>
<path d="M311.481 123.898L303.601 115.922L292.519 127.548L300.399 135.523L311.481 123.898Z" fill="#F1D4D4"/>
<path d="M1190.06 836.715L1193.14 826.242L1167.81 811.136L1164.72 821.609L1190.06 836.715Z" fill="#AC8DAF"/>
<path d="M1322.24 1409.22L1335.39 1405.85L1333 1379.77L1319.85 1383.14L1322.24 1409.22Z" fill="#484C7F"/>
<path d="M2005.05 194.759L1997.82 187.069L1988.8 195.457L1996.03 203.147L2005.05 194.759Z" fill="#484C7F"/>
<path d="M454.401 243.233L465.082 244.804L467.751 215.33L457.07 213.759L454.401 243.233Z" fill="#F1D4D4"/>
<path d="M1216.58 263.41L1209.5 261.954L1208.59 278.585L1215.67 280.041L1216.58 263.41Z" fill="#F1D4D4"/>
<path d="M445.805 796.61L434.213 790.61L431.472 801.528L443.064 807.527L445.805 796.61Z" fill="#484C7F"/>
<path d="M266.389 599.411L261.284 587.622L249.43 590.806L254.535 602.595L266.389 599.411Z" fill="#AC8DAF"/>
<path d="M1120.81 810.301L1111.76 808.425L1110.42 828.036L1119.47 829.911L1120.81 810.301Z" fill="#DDB6C6"/>
<path d="M1347.58 1309.68L1347.34 1300.93L1326.65 1296.08L1326.89 1304.83L1347.58 1309.68Z" fill="#DDB6C6"/>
<path d="M1175.21 914.759L1169.27 905.699L1156.73 914.35L1162.67 923.411L1175.21 914.759Z" fill="#AC8DAF"/>
<path d="M723.186 1062.42L725.406 1054.45L708.923 1052.37L706.702 1060.34L723.186 1062.42Z" fill="#484C7F"/>
<path d="M691.243 1064.87L687.996 1056.14L669.186 1060.97L672.433 1069.71L691.243 1064.87Z" fill="#484C7F"/>
<path d="M1837.25 1011.13L1827.2 1011.66L1824.56 1026.72L1834.61 1026.19L1837.25 1011.13Z" fill="#484C7F"/>
<path d="M1261.64 353.529L1270.29 346.59L1262.92 337.241L1254.27 344.181L1261.64 353.529Z" fill="#F1D4D4"/>
<path d="M472.859 222.43L460.608 218.523L458.271 239.327L470.522 243.235L472.859 222.43Z" fill="#DDB6C6"/>
<path d="M936.682 510.48L941.115 506.39L932.237 497.211L927.805 501.301L936.682 510.48Z" fill="#AC8DAF"/>
<path d="M731.412 817.749L724.721 812.436L713.856 827.718L720.547 833.032L731.412 817.749Z" fill="#DDB6C6"/>
<path d="M1645.33 1386.27L1654.86 1383.24L1646.98 1370.74L1637.45 1373.77L1645.33 1386.27Z" fill="#F1D4D4"/>
<path d="M414.254 613.673L419.909 611.27L410.206 598.064L404.551 600.467L414.254 613.673Z" fill="#F1D4D4"/>
<path d="M568.963 1314.59L574.219 1309.32L562.016 1297.2L556.76 1302.47L568.963 1314.59Z" fill="#484C7F"/>
<path d="M1626.4 1167.57L1634.56 1165.84L1625.43 1149.03L1617.27 1150.76L1626.4 1167.57Z" fill="#DDB6C6"/>
<path d="M556.576 690.513L554.268 680.558L534.008 675.49L536.315 685.445L556.576 690.513Z" fill="#F1D4D4"/>
<path d="M1428.81 1322.66L1418.46 1320.07L1418.45 1337.46L1428.79 1340.05L1428.81 1322.66Z" fill="#484C7F"/>
<path d="M1285.96 532.952L1284.04 523.928L1267.59 526.324L1269.52 535.347L1285.96 532.952Z" fill="#DDB6C6"/>
<path d="M706.308 766.397L705.438 758.814L685.086 765.342L685.955 772.924L706.308 766.397Z" fill="#484C7F"/>
<path d="M1051.6 787.856L1044.63 786.513L1043.41 800.332L1050.38 801.675L1051.6 787.856Z" fill="#F1D4D4"/>
<path d="M1762.19 1147.14L1760.73 1137.13L1737.57 1135.92L1739.04 1145.94L1762.19 1147.14Z" fill="#F1D4D4"/>
<path d="M173.332 854.429L176.12 846.083L152.29 836.717L149.502 845.062L173.332 854.429Z" fill="#F1D4D4"/>
<path d="M1846.5 268.003L1835.75 262.966L1834.51 271.691L1845.26 276.729L1846.5 268.003Z" fill="#AC8DAF"/>
<path d="M1187.05 1228.48L1178.74 1222.84L1175.01 1231.15L1183.32 1236.79L1187.05 1228.48Z" fill="#DDB6C6"/>
<path d="M970.053 364.68L958.103 362.146L957.273 378.038L969.223 380.572L970.053 364.68Z" fill="#484C7F"/>
<path d="M47.386 1076.22L51.7748 1068.8L36.5576 1061.71L32.1688 1069.13L47.386 1076.22Z" fill="#484C7F"/>
<path d="M715.757 674.635L702.269 667.365L700.61 680.706L714.098 687.975L715.757 674.635Z" fill="#DDB6C6"/>
<path d="M1008.47 1289.6L1011.04 1282.31L996.828 1275.94L994.257 1283.23L1008.47 1289.6Z" fill="#AC8DAF"/>
<path d="M428.109 51.883L427.432 39.5117L401.807 32.0909L402.483 44.4622L428.109 51.883Z" fill="#484C7F"/>
<path d="M1962.19 318.769L1971.4 316.514L1963.8 299.909L1954.59 302.164L1962.19 318.769Z" fill="#DDB6C6"/>
<path d="M964.487 1189.28L972.569 1185.79L960.876 1168.56L952.794 1172.05L964.487 1189.28Z" fill="#AC8DAF"/>
<path d="M158.346 461.849L165.265 461.481L162.304 444.439L155.385 444.807L158.346 461.849Z" fill="#AC8DAF"/>
<path d="M303.958 585.393L293.84 581.625L293.479 601.257L303.597 605.026L303.958 585.393Z" fill="#F1D4D4"/>
<path d="M175.14 531.887L168.607 527.167L156.051 545.033L162.585 549.753L175.14 531.887Z" fill="#F1D4D4"/>
<path d="M1668.97 276.923L1660.67 271.88L1638.97 299.773L1647.27 304.816L1668.97 276.923Z" fill="#484C7F"/>
<path d="M1534.32 744.591L1537.62 734.571L1514.5 732.043L1511.2 742.063L1534.32 744.591Z" fill="#F1D4D4"/>
<path d="M1282.33 548.874L1285.74 543.121L1265.82 527.481L1262.41 533.235L1282.33 548.874Z" fill="#484C7F"/>
<path d="M963.378 862.336L972.794 862.151L970.485 851.577L961.069 851.761L963.378 862.336Z" fill="#484C7F"/>
<path d="M1651.1 79.7205L1658.05 72.9458L1639.03 52.631L1632.08 59.4057L1651.1 79.7205Z" fill="#DDB6C6"/>
<path d="M501.22 811.897L502.584 802.88L489.108 795.194L487.744 804.212L501.22 811.897Z" fill="#DDB6C6"/>
<path d="M1730.71 728.811L1723.35 723.509L1715.55 732.843L1722.91 738.145L1730.71 728.811Z" fill="#F1D4D4"/>
<path d="M1591.62 480.233L1584.03 474.497L1571.5 490.063L1579.09 495.8L1591.62 480.233Z" fill="#AC8DAF"/>
<path d="M393.169 828.863L403.328 827.309L387.689 796.137L377.53 797.691L393.169 828.863Z" fill="#DDB6C6"/>
<path d="M252.051 1097.15L255.58 1088.59L246.341 1085.5L242.812 1094.06L252.051 1097.15Z" fill="#F1D4D4"/>
<path d="M1016.8 1068.76L1026.73 1067.37L1023.19 1038.64L1013.27 1040.04L1016.8 1068.76Z" fill="#F1D4D4"/>
<path d="M266.092 1206.37L263.387 1194.51L239.949 1198.27L242.654 1210.12L266.092 1206.37Z" fill="#AC8DAF"/>
<path d="M1294.29 1014.01L1288.61 1001.76L1260.81 998.863L1266.49 1011.11L1294.29 1014.01Z" fill="#DDB6C6"/>
<path d="M1433.45 730.759L1424.68 725.359L1405.48 753.696L1414.24 759.095L1433.45 730.759Z" fill="#AC8DAF"/>
<path d="M1720.06 523.402L1717.82 515.402L1708.02 516.101L1710.26 524.101L1720.06 523.402Z" fill="#484C7F"/>
<path d="M1597.99 228.319L1600.99 220.75L1585.22 215.212L1582.22 222.781L1597.99 228.319Z" fill="#AC8DAF"/>
<path d="M840.219 1366.19L828.387 1360.48L819.352 1386.87L831.184 1392.59L840.219 1366.19Z" fill="#DDB6C6"/>
<path d="M110.539 167.545L113.591 159.783L105.214 154.547L102.162 162.309L110.539 167.545Z" fill="#484C7F"/>
<path d="M546.898 146.648L547.739 138.716L526.209 142.014L525.368 149.946L546.898 146.648Z" fill="#AC8DAF"/>
<path d="M450.755 592.061L463.434 592.766L458.053 556.581L445.374 555.876L450.755 592.061Z" fill="#DDB6C6"/>
<path d="M1329.06 735.612L1334.79 728.948L1324.96 719.972L1319.22 726.636L1329.06 735.612Z" fill="#484C7F"/>
<path d="M110.31 890.268L105.651 883.88L89.6094 896.656L94.2681 903.044L110.31 890.268Z" fill="#484C7F"/>
<path d="M970.266 106.495L975.195 102.37L970.099 96.6931L965.17 100.818L970.266 106.495Z" fill="#DDB6C6"/>
<path d="M247.264 1181.76L249.972 1174.3L234.998 1168.27L232.29 1175.73L247.264 1181.76Z" fill="#AC8DAF"/>
<path d="M748.543 1175.64L743.168 1168.39L736.451 1172.73L741.826 1179.98L748.543 1175.64Z" fill="#AC8DAF"/>
<path d="M316.925 515.239L310.178 514.377L307.968 522.396L314.714 523.257L316.925 515.239Z" fill="#DDB6C6"/>
<path d="M958.687 807.893L951.773 806.792L950.921 813.743L957.834 814.845L958.687 807.893Z" fill="#AC8DAF"/>
<path d="M1523.55 546.13L1515.34 542.462L1513.84 550.56L1522.05 554.228L1523.55 546.13Z" fill="#484C7F"/>
<path d="M661.232 390.345L651.006 383.854L646.023 393.6L656.248 400.09L661.232 390.345Z" fill="#F1D4D4"/>
<path d="M246.844 1162.81L255.373 1155.4L237.61 1135.65L229.081 1143.06L246.844 1162.81Z" fill="#F1D4D4"/>
<path d="M570.933 848.499L571.724 838.794L546.688 826.115L545.896 835.82L570.933 848.499Z" fill="#484C7F"/>
<path d="M1210.54 1296.87L1204.69 1287.13L1185.36 1300.1L1191.21 1309.83L1210.54 1296.87Z" fill="#DDB6C6"/>
<path d="M1169.58 830.917L1167.31 818.799H1154.44L1156.71 830.917H1169.58Z" fill="#DDB6C6"/>
<path d="M1924.88 223.719L1926.78 214.741L1911.04 213.344L1909.14 222.322L1924.88 223.719Z" fill="#484C7F"/>
<path d="M650.843 1243.84L654.662 1236.17L627.132 1218.14L623.314 1225.81L650.843 1243.84Z" fill="#484C7F"/>
<path d="M1565.61 1047.63L1561.88 1040.61L1549.68 1047.7L1553.41 1054.72L1565.61 1047.63Z" fill="#DDB6C6"/>
<path d="M1654.05 512.741L1661.49 507.874L1654.35 499.094L1646.91 503.961L1654.05 512.741Z" fill="#AC8DAF"/>
<path d="M1446.47 670.598L1452.64 662.484L1430.46 643.039L1424.29 651.153L1446.47 670.598Z" fill="#484C7F"/>
<path d="M509.427 759.239L504.625 752.701L493.145 758.938L497.947 765.476L509.427 759.239Z" fill="#F1D4D4"/>
<path d="M1888.24 1283.97L1881.1 1276.97L1875.3 1282.64L1882.44 1289.64L1888.24 1283.97Z" fill="#AC8DAF"/>
<path d="M844.474 722.056L847.972 712.214L821.006 695.173L817.508 705.015L844.474 722.056Z" fill="#AC8DAF"/>
<path d="M1550.69 988.027L1554.25 980.213L1526.11 960.517L1522.55 968.33L1550.69 988.027Z" fill="#DDB6C6"/>
<path d="M807.72 1198.2L799.286 1191.43L791.521 1202.27L799.955 1209.04L807.72 1198.2Z" fill="#DDB6C6"/>
<path d="M637.452 179.075L644.116 175.291L631.525 154.831L624.86 158.615L637.452 179.075Z" fill="#484C7F"/>
<path d="M1487.11 537.897L1473.88 533.818L1473.01 549.27L1486.24 553.349L1487.11 537.897Z" fill="#484C7F"/>
<path d="M707.678 1273.69L708.06 1263.75L691.081 1260.47L690.699 1270.41L707.678 1273.69Z" fill="#AC8DAF"/>
<path d="M268.73 586.894L259.28 578.13L249.815 588.613L259.265 597.377L268.73 586.894Z" fill="#484C7F"/>
<path d="M1572.05 790.247L1575.13 780.806L1554.64 768.648L1551.55 778.089L1572.05 790.247Z" fill="#AC8DAF"/>
<path d="M924.893 1096.18L915.504 1090.49L900.608 1115.45L909.998 1121.13L924.893 1096.18Z" fill="#AC8DAF"/>
<path d="M1834.83 674.708L1823.44 667.626L1820.48 678.338L1831.87 685.42L1834.83 674.708Z" fill="#484C7F"/>
<path d="M247.865 620.944L240.207 611.978L222.902 626.19L230.561 635.156L247.865 620.944Z" fill="#AC8DAF"/>
<path d="M1660.13 992.343L1670.8 984.16L1659.31 968.615L1648.63 976.797L1660.13 992.343Z" fill="#F1D4D4"/>
<path d="M376.482 149.071L367.323 145.934L358.86 168.145L368.019 171.283L376.482 149.071Z" fill="#DDB6C6"/>
<path d="M943.35 1225.25L930.921 1217.97L925.843 1243.96L938.272 1251.24L943.35 1225.25Z" fill="#DDB6C6"/>
<path d="M868.039 420.05L855.339 418.005L849.658 447.799L862.358 449.844L868.039 420.05Z" fill="#484C7F"/>
<path d="M1106.45 409.101L1117.16 406.741L1104.83 381.449L1094.11 383.809L1106.45 409.101Z" fill="#484C7F"/>
<path d="M1074.91 395.175L1067.74 388.095L1042.9 412.642L1050.07 419.722L1074.91 395.175Z" fill="#DDB6C6"/>
<path d="M169.094 581.544L176.954 577.627L168.54 566.554L160.679 570.471L169.094 581.544Z" fill="#F1D4D4"/>
<path d="M71.9457 709.083L78.0501 705.746L70.2715 690.504L64.167 693.841L71.9457 709.083Z" fill="#F1D4D4"/>
<path d="M868.562 1175.93L869.734 1169.32L857.765 1165.19L856.593 1171.81L868.562 1175.93Z" fill="#F1D4D4"/>
<path d="M1008.67 510.54L1014.9 508.031L1010.16 498.694L1003.94 501.203L1008.67 510.54Z" fill="#F1D4D4"/>
<path d="M1644.94 941.92L1637.35 935.216L1627.44 946.619L1635.03 953.323L1644.94 941.92Z" fill="#F1D4D4"/>
<path d="M2012.25 735.034L2009.7 723.034L1984.57 727.152L1987.12 739.152L2012.25 735.034Z" fill="#484C7F"/>
<path d="M854.817 851.308L857.022 839.801L841.427 832.742L839.223 844.248L854.817 851.308Z" fill="#DDB6C6"/>
<path d="M1522.9 1029.92H1532.56L1517.79 1005.07H1508.13L1522.9 1029.92Z" fill="#484C7F"/>
<path d="M364.102 186.019L371.936 178.576L356.404 162.697L348.57 170.14L364.102 186.019Z" fill="#484C7F"/>
<path d="M1213.57 1232.66L1207.21 1229.38L1204.38 1236.73L1210.74 1240L1213.57 1232.66Z" fill="#484C7F"/>
<path d="M1995.21 608.243L1987.4 595.987L1972.46 602.501L1980.27 614.757L1995.21 608.243Z" fill="#DDB6C6"/>
<path d="M1825.32 951.105L1835.65 944.144L1829.34 932.423L1819.01 939.383L1825.32 951.105Z" fill="#484C7F"/>
<path d="M917.468 851.512L919.216 843.914L905.586 836.229L903.838 843.827L917.468 851.512Z" fill="#AC8DAF"/>
<path d="M914.847 1175.4L908.51 1171.67L904.452 1181.43L910.789 1185.16L914.847 1175.4Z" fill="#F1D4D4"/>
<path d="M368.139 1382.37L378.941 1381.6L371.279 1354.65L360.477 1355.42L368.139 1382.37Z" fill="#AC8DAF"/>
<path d="M640.978 1083.76L650.011 1082.11L643.528 1062.26L634.495 1063.91L640.978 1083.76Z" fill="#DDB6C6"/>
<path d="M838.671 196.966L825.772 194.013L823.059 219.595L835.958 222.548L838.671 196.966Z" fill="#AC8DAF"/>
<path d="M1553.2 1296.19L1550.2 1284.2L1534.05 1283.64L1537.06 1295.63L1553.2 1296.19Z" fill="#F1D4D4"/>
<path d="M1522.17 415.581L1521.44 408.871L1509.61 405.647L1510.35 412.357L1522.17 415.581Z" fill="#AC8DAF"/>
<path d="M-8.70844 311.992L2.69031 309.124L3.27387 291.606L-8.12488 294.475L-8.70844 311.992Z" fill="#DDB6C6"/>
<path d="M1607.05 1062.76L1596.1 1063.15L1594.96 1085.3L1605.9 1084.92L1607.05 1062.76Z" fill="#484C7F"/>
<path d="M179.075 1355.49L172.156 1350.45L167.995 1356.67L174.914 1361.71L179.075 1355.49Z" fill="#484C7F"/>
<path d="M873.394 1299.34L865.404 1298.78L865.45 1319.81L873.44 1320.37L873.394 1299.34Z" fill="#AC8DAF"/>
<path d="M1549.8 609.723L1555.85 607.213L1550.46 597.871L1544.41 600.382L1549.8 609.723Z" fill="#F1D4D4"/>
<path d="M917.847 30.5716L925.525 29.4575L917.439 6.66751L909.76 7.78159L917.847 30.5716Z" fill="#F1D4D4"/>
<path d="M1858.06 1057.94L1867.25 1047.3L1850.99 1033.61L1841.79 1044.26L1858.06 1057.94Z" fill="#DDB6C6"/>
<path d="M724.487 1259.42L714.629 1249.38L692.869 1270.76L702.727 1280.79L724.487 1259.42Z" fill="#484C7F"/>
<path d="M324.311 1265.04L331.222 1262.17L324.744 1250.97L317.833 1253.83L324.311 1265.04Z" fill="#DDB6C6"/>
<path d="M898.421 963.843L903.764 956.766L893.928 947.334L888.585 954.411L898.421 963.843Z" fill="#DDB6C6"/>
<path d="M548.38 1322.93L540.134 1312.42L526.477 1323.38L534.724 1333.9L548.38 1322.93Z" fill="#484C7F"/>
<path d="M1264.73 1346.25L1275.74 1342.4L1259.9 1317.23L1248.89 1321.08L1264.73 1346.25Z" fill="#DDB6C6"/>
<path d="M1049.22 953.793L1043.11 946.104L1036.54 951.097L1042.66 958.787L1049.22 953.793Z" fill="#AC8DAF"/>
<path d="M225.196 41.3597L230.644 30.7627L204.805 17.146L199.357 27.743L225.196 41.3597Z" fill="#DDB6C6"/>
<path d="M1081.55 846.393L1085.71 835.095L1070.04 828.629L1065.88 839.926L1081.55 846.393Z" fill="#AC8DAF"/>
<path d="M1695.42 441.722L1688.67 440.866L1686.36 447.84L1693.11 448.696L1695.42 441.722Z" fill="#AC8DAF"/>
<path d="M243.867 1184.53L237.094 1183.19L232.42 1200.87L239.193 1202.21L243.867 1184.53Z" fill="#F1D4D4"/>
<path d="M1563.8 1046.09L1565.57 1039.19L1556.98 1037.14L1555.2 1044.04L1563.8 1046.09Z" fill="#F1D4D4"/>
<path d="M1217.08 902.151L1211.23 890.255L1196.3 894.771L1202.14 906.667L1217.08 902.151Z" fill="#DDB6C6"/>
<path d="M759.723 648.693L765.519 644.773L759.936 636.471L754.14 640.391L759.723 648.693Z" fill="#F1D4D4"/>
<path d="M413.046 569.816L408.054 561.602L390.726 570.95L395.718 579.164L413.046 569.816Z" fill="#484C7F"/>
<path d="M788.393 909.718L792.68 897.799L761.03 890.621L756.743 902.54L788.393 909.718Z" fill="#F1D4D4"/>
<path d="M1195.75 1086.58L1186.25 1084.54L1188.15 1096.32L1197.65 1098.36L1195.75 1086.58Z" fill="#484C7F"/>
<path d="M1333.23 730.375L1321.01 732.491L1318.59 755.491L1330.82 753.375L1333.23 730.375Z" fill="#F1D4D4"/>
<path d="M410.377 719.85L414.295 713.842L402.693 706.621L398.775 712.63L410.377 719.85Z" fill="#DDB6C6"/>
<path d="M1469.71 879.556L1479.38 874.015L1473.35 862.672L1463.69 868.213L1469.71 879.556Z" fill="#DDB6C6"/>
<path d="M25.6265 903.232L25.8442 891.137L-8.80512 886.806L-9.0228 898.9L25.6265 903.232Z" fill="#AC8DAF"/>
<path d="M1178.29 1367.34L1172.03 1362.44L1168.98 1367.88L1175.24 1372.78L1178.29 1367.34Z" fill="#F1D4D4"/>
<path d="M1176.06 173.023L1178.29 165.042L1164.6 163.821L1162.37 171.801L1176.06 173.023Z" fill="#F1D4D4"/>
<path d="M430.934 739.208L417.743 738.075L420.881 762.983L434.071 764.117L430.934 739.208Z" fill="#AC8DAF"/>
<path d="M762.189 441.945L753.091 436.102L745.268 448.003L754.366 453.847L762.189 441.945Z" fill="#AC8DAF"/>
<path d="M462.765 522.832L469.64 514.227L455.596 500.385L448.722 508.99L462.765 522.832Z" fill="#484C7F"/>
<path d="M643.068 55.8185L636.34 54.124L631.929 69.6583L638.658 71.3528L643.068 55.8185Z" fill="#F1D4D4"/>
<path d="M630.36 351.963L634.535 341.686L602.225 323.492L598.05 333.768L630.36 351.963Z" fill="#AC8DAF"/>
<path d="M1406.52 1028.17L1405.89 1019.2L1386.94 1020.86L1387.56 1029.82L1406.52 1028.17Z" fill="#F1D4D4"/>
<path d="M1025.68 95.8655L1032.98 91.0962L1021.19 74.1352L1013.89 78.9045L1025.68 95.8655Z" fill="#F1D4D4"/>
<path d="M1066.65 275.95L1073.26 274.121L1067.76 256.563L1061.15 258.393L1066.65 275.95Z" fill="#AC8DAF"/>
<path d="M991.227 -13.5784L978.233 -18.0308L973.895 5.49374L986.89 9.94611L991.227 -13.5784Z" fill="#DDB6C6"/>
<path d="M127.392 703.779L134.846 699.891L131.456 692L124.002 695.888L127.392 703.779Z" fill="#AC8DAF"/>
<path d="M327.728 81.7014L316.379 73.3643L304.899 93.4803L316.247 101.817L327.728 81.7014Z" fill="#484C7F"/>
<path d="M1312.46 274.953L1304.87 271.002L1292.78 290.803L1300.37 294.754L1312.46 274.953Z" fill="#DDB6C6"/>
<path d="M154.45 156.521L152.566 144.283L128.77 142.571L130.653 154.809L154.45 156.521Z" fill="#AC8DAF"/>
<path d="M679.343 1344.18L687.472 1342.13L677.906 1322.4L669.777 1324.45L679.343 1344.18Z" fill="#AC8DAF"/>
<path d="M1796.01 691.93L1793.46 678.938L1769.28 678.1L1771.83 691.092L1796.01 691.93Z" fill="#F1D4D4"/>
<path d="M1277.58 66.0949L1266.65 61.1533L1255.58 87.9763L1266.52 92.9179L1277.58 66.0949Z" fill="#AC8DAF"/>
<path d="M8.93858 1387.48L-2.31586 1383.75L-12.7312 1414.41L-1.47678 1418.14L8.93858 1387.48Z" fill="#484C7F"/>
<path d="M1586.05 947.057L1577.88 946.22L1579.8 958.162L1587.97 958.999L1586.05 947.057Z" fill="#DDB6C6"/>
<path d="M1841.05 1370.83L1846.16 1367L1834.19 1352.69L1829.07 1356.51L1841.05 1370.83Z" fill="#484C7F"/>
<path d="M1281.95 861.034L1270.45 856.704L1268.1 884.527L1279.59 888.857L1281.95 861.034Z" fill="#DDB6C6"/>
<path d="M675.25 217.785L664.879 214.197L662.503 240.373L672.874 243.961L675.25 217.785Z" fill="#DDB6C6"/>
<path d="M1813.3 345.169L1804.25 344.854L1807.93 370.839L1816.98 371.153L1813.3 345.169Z" fill="#AC8DAF"/>
<path d="M918.945 1297.58L917.811 1287L892.095 1279.95L893.229 1290.52L918.945 1297.58Z" fill="#AC8DAF"/>
<path d="M757.409 1155.87L752.075 1151.4L745.212 1160.08L750.545 1164.55L757.409 1155.87Z" fill="#F1D4D4"/>
<path d="M179.982 100.34L185.422 96.5063L181.017 90.6033L175.577 94.4368L179.982 100.34Z" fill="#484C7F"/>
<path d="M207.948 669.437L199.202 661.747L188.052 678.24L196.798 685.93L207.948 669.437Z" fill="#484C7F"/>
<path d="M1743.2 726.383L1744.78 718.081L1723.9 708.211L1722.31 716.513L1743.2 726.383Z" fill="#AC8DAF"/>
<path d="M1003.07 134.557L1006.61 122.771L995.077 120.479L991.544 132.266L1003.07 134.557Z" fill="#AC8DAF"/>
<path d="M1372.24 1059.88L1379.42 1054.33L1359.87 1034.22L1352.69 1039.77L1372.24 1059.88Z" fill="#484C7F"/>
<path d="M1401.75 366.424L1391.68 358.996L1383.57 370.881L1393.64 378.309L1401.75 366.424Z" fill="#F1D4D4"/>
<path d="M571.149 992.579L575.948 981.958L556.831 970.087L552.032 980.707L571.149 992.579Z" fill="#F1D4D4"/>
<path d="M1161.08 1196.04L1169.57 1190.23L1163.22 1178.67L1154.73 1184.49L1161.08 1196.04Z" fill="#484C7F"/>
<path d="M568.565 621.763L563.304 614.592L554.476 617.194L559.737 624.365L568.565 621.763Z" fill="#DDB6C6"/>
<path d="M1054.79 1381.13L1059.97 1371.08L1032.53 1358.47L1027.36 1368.52L1054.79 1381.13Z" fill="#AC8DAF"/>
<path d="M764.727 538.568L775.964 536.691L760.626 505.08L749.39 506.958L764.727 538.568Z" fill="#AC8DAF"/>
<path d="M265.783 512.239L258.753 507.038L243.993 526.845L251.023 532.046L265.783 512.239Z" fill="#AC8DAF"/>
<path d="M744.191 1065.11L739.514 1056.87L720.555 1065.83L725.232 1074.07L744.191 1065.11Z" fill="#484C7F"/>
<path d="M896.74 810.386L887.176 804.561L873.493 823.829L883.057 829.654L896.74 810.386Z" fill="#484C7F"/>
<path d="M452.951 365.496L452.324 353.531L416.899 347.378L417.526 359.343L452.951 365.496Z" fill="#DDB6C6"/>
<path d="M992.124 846.616L998.013 842.304L990.909 832.053L985.02 836.365L992.124 846.616Z" fill="#484C7F"/>
<path d="M640.799 1061.17L628.239 1053.8L617.707 1086.95L630.268 1094.32L640.799 1061.17Z" fill="#AC8DAF"/>
<path d="M1008.96 1337.12L999.638 1331.82L995.292 1341.15L1004.61 1346.45L1008.96 1337.12Z" fill="#484C7F"/>
<path d="M1127.36 1187.28L1139.98 1189.44L1127.61 1157.83L1115 1155.67L1127.36 1187.28Z" fill="#AC8DAF"/>
<path d="M1758.55 271.987L1745.77 265.883L1739.31 286.194L1752.09 292.298L1758.55 271.987Z" fill="#AC8DAF"/>
<path d="M248 337.108L258.725 336.521L257.043 325.331L246.318 325.917L248 337.108Z" fill="#F1D4D4"/>
<path d="M435.431 863.298L430.514 855.812L411.364 864.074L416.281 871.561L435.431 863.298Z" fill="#484C7F"/>
<path d="M306.008 1083.04L297.349 1075.81L285.049 1090.94L293.708 1098.17L306.008 1083.04Z" fill="#AC8DAF"/>
<path d="M526.398 1011.99L515.461 1005.81L513.996 1016.86L524.934 1023.04L526.398 1011.99Z" fill="#484C7F"/>
<path d="M349.326 408.169H339.364L338.062 433.265H348.024L349.326 408.169Z" fill="#F1D4D4"/>
<path d="M845.572 1161.82L848.059 1155.91L828.957 1144.96L826.47 1150.86L845.572 1161.82Z" fill="#484C7F"/>
<path d="M710.556 1060.54L705.19 1052.26L698.411 1053.72L703.777 1062L710.556 1060.54Z" fill="#DDB6C6"/>
<path d="M331.353 819.853L324.901 816.554L318.687 830.735L325.139 834.034L331.353 819.853Z" fill="#DDB6C6"/>
<path d="M1070.49 631.781L1074.92 623.227L1046.14 604.336L1041.71 612.89L1070.49 631.781Z" fill="#DDB6C6"/>
<path d="M811.817 1171.5L807.702 1166.2L797.185 1174.76L801.299 1180.06L811.817 1171.5Z" fill="#AC8DAF"/>
<path d="M520.577 1162.55L518.643 1152.57L496.216 1155.8L498.149 1165.78L520.577 1162.55Z" fill="#F1D4D4"/>
<path d="M374.519 1265.26L378.383 1258.11L359.201 1248.08L355.336 1255.24L374.519 1265.26Z" fill="#AC8DAF"/>
<path d="M544.187 908.323L556.502 906.513L541.861 873.829L529.546 875.639L544.187 908.323Z" fill="#F1D4D4"/>
<path d="M1710.66 818.124L1719.98 810.314L1712.05 800.231L1702.72 808.041L1710.66 818.124Z" fill="#484C7F"/>
<path d="M467.659 10.4428L459.526 9.60645L461.789 30.4945L469.923 31.3308L467.659 10.4428Z" fill="#484C7F"/>
<path d="M1764.28 938.586L1773.1 928.354L1758.84 917.697L1750.02 927.929L1764.28 938.586Z" fill="#AC8DAF"/>
<path d="M939.96 415.512L938.949 406.587L915.391 403.382L916.402 412.307L939.96 415.512Z" fill="#484C7F"/>
<path d="M26.4536 592.397L21.7798 587.199L13.0927 595.509L17.7666 600.707L26.4536 592.397Z" fill="#484C7F"/>
<path d="M1323.61 674.819L1325.92 668.396L1312.82 662.405L1310.51 668.828L1323.61 674.819Z" fill="#F1D4D4"/>
<path d="M951.33 624.824L958.628 618.583L941.327 602.136L934.029 608.377L951.33 624.824Z" fill="#F1D4D4"/>
<path d="M1993.9 509.454L1987.28 505.006L1984.44 510.499L1991.07 514.948L1993.9 509.454Z" fill="#AC8DAF"/>
<path d="M168.257 1287.75L160.384 1278.83L137.743 1298.91L145.616 1307.83L168.257 1287.75Z" fill="#484C7F"/>
<path d="M872.753 1261.31L870.409 1253.51L849.322 1258.46L851.666 1266.26L872.753 1261.31Z" fill="#AC8DAF"/>
<path d="M1429.23 1310.48L1429.95 1300.8L1404.61 1294.31L1403.89 1303.99L1429.23 1310.48Z" fill="#DDB6C6"/>
<path d="M1127.06 1089.18L1125.83 1082.06L1113.73 1080.35L1114.96 1087.46L1127.06 1089.18Z" fill="#AC8DAF"/>
<path d="M485.791 1229.27L489.674 1219.46L479.604 1216.57L475.72 1226.38L485.791 1229.27Z" fill="#484C7F"/>
<path d="M1569.65 1242.36L1569.25 1232.34L1545.2 1230.24L1545.61 1240.26L1569.65 1242.36Z" fill="#AC8DAF"/>
<path d="M714.074 1388.11L705.482 1379.9L684.697 1401.92L693.29 1410.14L714.074 1388.11Z" fill="#AC8DAF"/>
<path d="M1194.1 918.165L1189.01 909.333L1177.11 916.187L1182.2 925.019L1194.1 918.165Z" fill="#484C7F"/>
<path d="M625.861 1293.76L628.918 1283.75L614.468 1277.09L611.411 1287.1L625.861 1293.76Z" fill="#484C7F"/>
<path d="M1406.28 170.203L1413.89 167.598L1407.71 148.685L1400.1 151.29L1406.28 170.203Z" fill="#AC8DAF"/>
<path d="M1043.23 1208.19L1034.9 1196.58L1013.49 1208.87L1021.81 1220.48L1043.23 1208.19Z" fill="#F1D4D4"/>
<path d="M229.555 352.55L236.381 341.606L212.202 325.14L205.377 336.083L229.555 352.55Z" fill="#F1D4D4"/>
<path d="M220.915 727.903L223.723 718.993L200.221 708.097L197.413 717.007L220.915 727.903Z" fill="#AC8DAF"/>
<path d="M442.482 442.986L430.262 440.489L429.815 467.894L442.035 470.39L442.482 442.986Z" fill="#484C7F"/>
<path d="M463.702 963.742L454.772 961.87L451.852 982.423L460.782 984.296L463.702 963.742Z" fill="#484C7F"/>
<path d="M1632.64 719.551L1645.67 719.779L1637.81 700.677L1624.78 700.449L1632.64 719.551Z" fill="#AC8DAF"/>
<path d="M106.682 970.547L101.851 964.578L92.2124 971.505L97.0443 977.474L106.682 970.547Z" fill="#DDB6C6"/>
<path d="M1412.99 637.901L1405.95 635.22L1405.09 641.856L1412.12 644.536L1412.99 637.901Z" fill="#DDB6C6"/>
<path d="M974.085 956.476L983.977 950.442L968.771 929.491L958.879 935.525L974.085 956.476Z" fill="#484C7F"/>
<path d="M1888.75 465.971L1879.24 457.507L1870.28 468.463L1879.79 476.928L1888.75 465.971Z" fill="#F1D4D4"/>
<path d="M106.859 240.343L108.826 231.172L79.7423 219.332L77.7754 228.502L106.859 240.343Z" fill="#DDB6C6"/>
<path d="M1100.43 672.388L1101.84 663.44L1087.57 658.305L1086.15 667.253L1100.43 672.388Z" fill="#AC8DAF"/>
<path d="M1025.79 697.2L1019.58 683.918L1004.19 684.489L1010.4 697.771L1025.79 697.2Z" fill="#F1D4D4"/>
<path d="M1820.68 1004.92L1824.66 992.834L1808.18 991.637L1804.2 1003.72L1820.68 1004.92Z" fill="#F1D4D4"/>
<path d="M451.689 220.582L454.186 207.611L422.542 205.379L420.046 218.349L451.689 220.582Z" fill="#484C7F"/>
<path d="M1998.31 932.83L1997.22 922.878L1981.97 921.309L1983.06 931.261L1998.31 932.83Z" fill="#DDB6C6"/>
<path d="M1829.29 874.715L1836.37 875.873L1833.66 867.516L1826.58 866.358L1829.29 874.715Z" fill="#484C7F"/>
<path d="M1427.31 1093.78L1434.24 1094.54L1431.62 1079.1L1424.69 1078.34L1427.31 1093.78Z" fill="#484C7F"/>
<path d="M661.088 571.301L667.352 560.519L639.564 541.936L633.3 552.717L661.088 571.301Z" fill="#DDB6C6"/>
<path d="M1527.14 227.89L1533.71 224.23L1524.51 209.867L1517.94 213.526L1527.14 227.89Z" fill="#F1D4D4"/>
<path d="M1601.98 668.996L1604.77 664.115L1595.72 657.386L1592.93 662.267L1601.98 668.996Z" fill="#DDB6C6"/>
<path d="M1509.13 1059.94L1501.01 1049.71L1489.54 1059.27L1497.66 1069.49L1509.13 1059.94Z" fill="#DDB6C6"/>
<path d="M223.743 391.786L218.462 384.676L204.735 395.168L210.016 402.277L223.743 391.786Z" fill="#F1D4D4"/>
<path d="M656.932 471.27L649.739 463.946L633.067 480.337L640.26 487.66L656.932 471.27Z" fill="#AC8DAF"/>
<path d="M1709.32 268.236L1705.74 259.025L1685.2 267.626L1688.78 276.837L1709.32 268.236Z" fill="#484C7F"/>
<path d="M594.72 1126.81L589.219 1123.36L583.695 1131.35L589.195 1134.8L594.72 1126.81Z" fill="#F1D4D4"/>
<path d="M227.257 624.648L234.267 622.402L225.171 604.775L218.161 607.022L227.257 624.648Z" fill="#F1D4D4"/>
<path d="M1140.11 216.204L1147.23 212.57L1141.33 200.98L1134.21 204.614L1140.11 216.204Z" fill="#DDB6C6"/>
<path d="M637.479 773.435L624.314 765.968L615.768 789.756L628.933 797.223L637.479 773.435Z" fill="#AC8DAF"/>
<path d="M1925.21 778.331L1934.6 775.073L1929.47 760.882L1920.08 764.139L1925.21 778.331Z" fill="#F1D4D4"/>
<path d="M1970.33 458.645L1965.22 447.271L1933.43 458.694L1938.54 470.068L1970.33 458.645Z" fill="#AC8DAF"/>
<path d="M531.133 1299.46L518.977 1289.25L511.143 1300.86L523.299 1311.06L531.133 1299.46Z" fill="#484C7F"/>
<path d="M1575.91 596.082L1565.11 587.024L1551.01 604.084L1561.81 613.142L1575.91 596.082Z" fill="#AC8DAF"/>
<path d="M1080.61 31.6922L1083.54 20.9551L1054.14 12.2785L1051.21 23.0156L1080.61 31.6922Z" fill="#F1D4D4"/>
<path d="M331.64 436.709L322.255 430.631L315.055 445.148L324.44 451.225L331.64 436.709Z" fill="#AC8DAF"/>
<path d="M1914.37 1384.93L1905.39 1380.69L1901.12 1395.73L1910.1 1399.96L1914.37 1384.93Z" fill="#DDB6C6"/>
<path d="M207.108 1273.36L200.269 1264.31L183.244 1276.85L190.083 1285.91L207.108 1273.36Z" fill="#AC8DAF"/>
<path d="M1772.22 384.183L1783.16 383.799L1779.1 362.811L1768.17 363.195L1772.22 384.183Z" fill="#DDB6C6"/>
<path d="M1112.27 349.1L1116.59 339.466L1096.26 328.785L1091.94 338.42L1112.27 349.1Z" fill="#F1D4D4"/>
<path d="M1707.63 383.311L1715.67 374.974L1701.52 361.304L1693.47 369.641L1707.63 383.311Z" fill="#F1D4D4"/>
<path d="M891.432 1213.63L894.52 1205.94L870.569 1191.1L867.481 1198.79L891.432 1213.63Z" fill="#DDB6C6"/>
<path d="M1941.58 41.6953L1945.68 36.3921L1931.08 24.5378L1926.98 29.841L1941.58 41.6953Z" fill="#484C7F"/>
<path d="M422.633 65.0716L431.178 63.8174L424.462 47.9513L415.917 49.2055L422.633 65.0716Z" fill="#F1D4D4"/>
<path d="M580.226 1360.77L591.557 1363.94L588.726 1340.82L577.395 1337.65L580.226 1360.77Z" fill="#F1D4D4"/>
<path d="M884.333 1267.61L893.266 1261.68L876.803 1242.05L867.87 1247.97L884.333 1267.61Z" fill="#484C7F"/>
<path d="M964.958 891.631L972.892 881.548L959.679 870.484L951.745 880.567L964.958 891.631Z" fill="#484C7F"/>
<path d="M1735.46 1190.65L1732.78 1177.58L1710.72 1176.81L1713.41 1189.88L1735.46 1190.65Z" fill="#484C7F"/>
<path d="M1460.39 107.687L1460.9 100.988L1452.71 98.6479L1452.2 105.346L1460.39 107.687Z" fill="#484C7F"/>
<path d="M940.492 575.092L949.358 569.646L941.096 558.48L932.229 563.926L940.492 575.092Z" fill="#484C7F"/>
<path d="M299.265 1223.97L306.99 1223.12L305.36 1215.02L297.635 1215.87L299.265 1223.97Z" fill="#DDB6C6"/>
<path d="M842.201 368.119L840.91 360.109L831.896 359.952L833.187 367.962L842.201 368.119Z" fill="#484C7F"/>
<path d="M40.3379 751.104L28.9735 744.997L14.9181 770.618L26.2824 776.725L40.3379 751.104Z" fill="#DDB6C6"/>
<path d="M454.465 1327.85L452.178 1317.17L436.527 1321.04L438.814 1331.72L454.465 1327.85Z" fill="#484C7F"/>
<path d="M1994.14 1073.34L1984.59 1070.95L1988.28 1089.78L1997.82 1092.17L1994.14 1073.34Z" fill="#DDB6C6"/>
<path d="M492.035 1375.29L483.821 1367.3L470.453 1381.7L478.667 1389.69L492.035 1375.29Z" fill="#AC8DAF"/>
<path d="M349.104 1304.82L352.528 1299.23L336.628 1288.4L333.204 1293.99L349.104 1304.82Z" fill="#DDB6C6"/>
<path d="M77.8713 627.951L84.6709 624.417L79.007 607.801L72.2074 611.335L77.8713 627.951Z" fill="#F1D4D4"/>
<path d="M89.6298 1210.09L88.5511 1203.24L76.7093 1205.95L77.788 1212.8L89.6298 1210.09Z" fill="#DDB6C6"/>
<path d="M457.959 1089.82L465.779 1089.4L458.908 1073.4L451.088 1073.82L457.959 1089.82Z" fill="#F1D4D4"/>
<path d="M1734.78 1187.32L1738.03 1179.96L1727.98 1175.66L1724.73 1183.03L1734.78 1187.32Z" fill="#F1D4D4"/>
<path d="M1313.2 1130.37L1317.27 1121.08L1308.14 1117.33L1304.08 1126.61L1313.2 1130.37Z" fill="#AC8DAF"/>
<path d="M1670.94 508.766L1665.01 502.239L1651.43 515.624L1657.36 522.151L1670.94 508.766Z" fill="#F1D4D4"/>
<path d="M1536.36 137.187L1527.16 131.408L1516.32 152.866L1525.52 158.645L1536.36 137.187Z" fill="#484C7F"/>
<path d="M534.661 514.654L540.406 511.149L532.919 499.876L527.175 503.381L534.661 514.654Z" fill="#AC8DAF"/>
<path d="M1824.6 284.679L1829.85 280.425L1825.29 274.779L1820.05 279.034L1824.6 284.679Z" fill="#DDB6C6"/>
<path d="M1035.11 723.839L1025.85 721.208L1024.59 743.206L1033.85 745.838L1035.11 723.839Z" fill="#F1D4D4"/>
<path d="M426.986 1041.68L419.913 1027.98L400.975 1026.23L408.048 1039.93L426.986 1041.68Z" fill="#F1D4D4"/>
<path d="M1782.89 1012.67L1780.88 1005.67L1766.17 1003.2L1768.18 1010.2L1782.89 1012.67Z" fill="#DDB6C6"/>
<path d="M1308.77 502.295L1307.79 493.805L1287.38 500.672L1288.37 509.161L1308.77 502.295Z" fill="#DDB6C6"/>
<path d="M1542.67 884.956L1540.95 876.302L1522.3 881.888L1524.02 890.542L1542.67 884.956Z" fill="#DDB6C6"/>
<path d="M1332.21 491.267L1329.69 484.438L1318.39 487.141L1320.92 493.971L1332.21 491.267Z" fill="#F1D4D4"/>
<path d="M1191.24 406.713L1198 404.623L1183.26 383.163L1176.49 385.254L1191.24 406.713Z" fill="#F1D4D4"/>
<path d="M598.999 1304.79L604.546 1298.91L595.48 1290.5L589.933 1296.39L598.999 1304.79Z" fill="#AC8DAF"/>
<path d="M379.335 558.086L376.736 550.086L354.986 550.854L357.585 558.854L379.335 558.086Z" fill="#DDB6C6"/>
<path d="M1931.63 845.878L1928.71 834.553L1905.74 832.064L1908.65 843.389L1931.63 845.878Z" fill="#AC8DAF"/>
<path d="M1454.5 1031.35L1450.74 1020.29L1420.5 1016.2L1424.27 1027.26L1454.5 1031.35Z" fill="#484C7F"/>
<path d="M500.935 52.0953L503.701 45.3022L485.063 40.463L482.297 47.2561L500.935 52.0953Z" fill="#AC8DAF"/>
<path d="M1375.21 1385.94L1378.63 1376.74L1367.34 1372.05L1363.91 1381.25L1375.21 1385.94Z" fill="#DDB6C6"/>
<path d="M1825.08 483.603L1818.74 471.038L1798.16 477.413L1804.5 489.978L1825.08 483.603Z" fill="#DDB6C6"/>
<path d="M1452.79 1074.44L1462.42 1073.55L1455.36 1049.28L1445.73 1050.16L1452.79 1074.44Z" fill="#F1D4D4"/>
<path d="M195.689 146.046L193.302 138.92L177.756 136.502L180.143 143.628L195.689 146.046Z" fill="#F1D4D4"/>
<path d="M1019.87 216.844L1011.58 213.301L1005.66 228.14L1013.96 231.683L1019.87 216.844Z" fill="#484C7F"/>
<path d="M366.354 1030.12L378.925 1029.2L373.296 1012.03L360.726 1012.95L366.354 1030.12Z" fill="#AC8DAF"/>
<path d="M1927.24 721.081L1935.14 713.832L1924.97 703.41L1917.07 710.659L1927.24 721.081Z" fill="#DDB6C6"/>
<path d="M344.925 684.04L335.18 680.76L331.685 696.002L341.43 699.282L344.925 684.04Z" fill="#F1D4D4"/>
<path d="M1129.47 128.788L1136.05 125.12L1123.02 104.426L1116.43 108.093L1129.47 128.788Z" fill="#484C7F"/>
<path d="M1802.33 197.89L1804.8 191.057L1796.49 188.538L1794.02 195.371L1802.33 197.89Z" fill="#DDB6C6"/>
<path d="M1956.36 1043.12L1954.23 1033.08L1926.11 1027.32L1928.24 1037.35L1956.36 1043.12Z" fill="#DDB6C6"/>
<path d="M909.134 914.334L896.302 904.899L890.682 914.795L903.515 924.229L909.134 914.334Z" fill="#484C7F"/>
<path d="M1919.8 1355.37L1927.8 1355.95L1920.35 1336.41L1912.35 1335.84L1919.8 1355.37Z" fill="#484C7F"/>
<path d="M578.775 894.64L584.857 889.977L575.325 875.416L569.244 880.08L578.775 894.64Z" fill="#AC8DAF"/>
<path d="M850.547 553.053L857.453 543.02L825.154 518.41L818.249 528.444L850.547 553.053Z" fill="#F1D4D4"/>
<path d="M652.917 1382.89L665.172 1384.65L650.008 1348.2L637.753 1346.45L652.917 1382.89Z" fill="#484C7F"/>
<path d="M1072.08 557.711L1065.82 548.085L1056.54 552.988L1062.8 562.614L1072.08 557.711Z" fill="#AC8DAF"/>
<path d="M1337.92 1384.28L1326.63 1382.55L1330.56 1414.33L1341.85 1416.06L1337.92 1384.28Z" fill="#AC8DAF"/>
<path d="M1719.24 660.174L1709.87 650.37L1701.33 658.086L1710.7 667.89L1719.24 660.174Z" fill="#F1D4D4"/>
<path d="M626.348 991.694L637.388 988.576L627.834 966.275L616.794 969.393L626.348 991.694Z" fill="#484C7F"/>
</g>
<defs>
<clipPath id="clip0_1_7052">
<rect width="2000" height="1400" fill="white"/>
</clipPath>
</defs>
</svg>
