<svg xmlns="http://www.w3.org/2000/svg"  viewBox="0 0 100 100" width="100px" height="100px" baseProfile="basic"><circle cx="50" cy="50" r="36.5" fill="#e8eaed"/><path fill="none" stroke="#231f20" stroke-linecap="round" stroke-linejoin="round" stroke-miterlimit="10" d="M50.631,69.258 c-0.956-0.269-1.86-0.373-2.516-0.311"/><path fill="none" stroke="#231f20" stroke-linecap="round" stroke-linejoin="round" stroke-miterlimit="10" d="M45.61,61.127 c-6,6-5.92,14.072-1.427,16.664c1.947,1.123,3.913,1.644,5.659,1.644"/><path fill="none" stroke="#231f20" stroke-linecap="round" stroke-linejoin="round" stroke-miterlimit="10" d="M77.735,51.144 c-1.403,0.42-2.768,0.762-4.03,0.983c-8.266,1.445-18.355,1.858-25.095,6"/><path fill="none" stroke="#231f20" stroke-linecap="round" stroke-linejoin="round" stroke-miterlimit="10" d="M87.735,86.774 c-1.919,0.517-3.917,0.953-5.956,1.257c-4.375,0.653-14.091,0.961-15.169,1.096"/><path fill="none" stroke="#231f20" stroke-linecap="round" stroke-linejoin="round" stroke-miterlimit="10" d="M42.63,76.842 c0,0-2,5.514,4.622,8.889c6.622,3.376,11.864-0.138,12.059-4.034c0.064-1.288-0.431-2.329-1.066-3.123"/><path fill="none" stroke="#231f20" stroke-linecap="round" stroke-linejoin="round" stroke-miterlimit="10" d="M49.532,87.198 c0.023,1.03,1.609,6.308,9.373,5.971c7.532-0.326,7.417-8.878,0.305-10.064"/><path fill="none" stroke="#231f20" stroke-linecap="round" stroke-linejoin="round" stroke-miterlimit="10" d="M59.848,60.88 c0,0-7.715,4.779-10.385,11.381c-3.613,8.933,6.147,11.006,9.066,5.482c1.872-3.543,3.944-3.704,7.731-2.861 c4.01,0.893,7.403,2.299,11.271-1.921"/><path fill="none" stroke="#231f20" stroke-linecap="round" stroke-linejoin="round" stroke-miterlimit="10" d="M61.006,27.932 L22.984,7.536c-3.897-2.09-8.639,0.609-8.831,5.027l-1.87,43.107c-0.319,4.241,3.753,7.459,7.805,6.167l21.721-6.922l5.62,9.143 l3.476-1.979l-5.62-9.143l17.04-15.144C65.504,34.967,64.816,29.823,61.006,27.932z"/><path fill="none" stroke="#231f20" stroke-linecap="round" stroke-linejoin="round" stroke-miterlimit="10" d="M60.715,75.252 l5.823,10.218c1.093,1.92,0.423,4.362-1.497,5.455h0c-0.495,0.282-1.024,0.446-1.556,0.502"/><polyline fill="none" stroke="#231f20" stroke-linecap="round" stroke-linejoin="round" stroke-miterlimit="10" points="47.802,68.752 45.691,65.047 52.643,61.089 54.873,65.002"/><line x1="41.5" x2="19.5" y1="50.5" y2="11.5" fill="none" stroke="#231f20" stroke-linecap="round" stroke-linejoin="round" stroke-miterlimit="10"/></svg>